<?xml version="1.0" encoding="utf-8"?>
<!-- Generator: Adobe Illustrator 19.2.0, SVG Export Plug-In . SVG Version: 6.00 Build 0)  -->
<svg version="1.1" id="Layer_1" xmlns="http://www.w3.org/2000/svg" xmlns:xlink="http://www.w3.org/1999/xlink" x="0px" y="0px"
	 viewBox="0 0 100 100" style="enable-background:new 0 0 100 100;" xml:space="preserve">
<g>
	<path d="M40.7,35.7c0,0.3-0.1,0.6-0.2,0.8c-0.2,0.2-0.2,0.5-0.1,0.8c-0.1,0.2-0.2,0.3-0.4,0.4c-0.1,0.1-0.2,0.3-0.2,0.5
		c-0.5,0.3-0.9,0.6-1.3,0.9c-0.4,0.4-0.8,0.7-1.3,1.1c-0.3,0.2-0.5,0.3-0.7,0.4c-0.2,0.1-0.4,0.2-0.7,0.4l-0.9,0.6
		c-0.4,0.2-0.8,0.4-1.2,0.6c-0.4,0.2-0.8,0.5-1.1,0.8c-0.5,0-1,0.2-1.5,0.4c-0.5,0.2-1,0.5-1.4,0.6c-0.2,0.1-0.4,0.1-0.6,0.2
		c-0.2,0-0.4,0.1-0.6,0.2l-0.6,0.2c-0.3,0.2-0.7,0.3-1.1,0.5c-0.4,0.2-0.8,0.3-1.2,0.3c-0.2,0.1-0.4,0.3-0.5,0.5
		c-0.8,0.3-1.5,0.4-2.3,0.6c-0.8,0.1-1.6,0.4-2.3,0.7c-0.3,0.1-0.5,0.3-0.8,0.5c-0.3,0.2-0.5,0.3-0.8,0.3c-0.1,0.1-0.1,0.3-0.1,0.4
		c0,0.2-0.1,0.3-0.1,0.5h-0.1c-0.1,0-0.1,0-0.1-0.1c0-0.1,0-0.1-0.1-0.1c-0.1,0-0.1,0-0.1,0c-0.3,0.1-0.6,0.1-0.8,0.2
		c-0.3,0-0.6,0.1-0.9,0.1c-0.2,0-0.5,0-0.9-0.1c-0.4,0-0.7-0.1-0.9-0.2c-0.1-0.1-0.3-0.2-0.3-0.4c-0.1-0.2-0.2-0.4-0.3-0.6
		c-0.1-0.2-0.1-0.4-0.2-0.6c-0.1-0.2-0.1-0.4-0.2-0.5c0.1-0.3,0.2-0.5,0.3-0.6c0.2-0.2,0.3-0.4,0.4-0.6c0.2,0,0.4-0.1,0.6-0.1
		c0.2,0,0.4-0.1,0.6,0c0.7-0.2,1.4-0.4,2.1-0.6c0.7-0.2,1.4-0.4,2.1-0.6c0.7-0.2,1.4-0.4,2.1-0.7c0.7-0.3,1.4-0.6,2-0.9h0.7
		c0.4-0.2,0.9-0.4,1.4-0.6c0.5-0.2,0.9-0.4,1.2-0.8c0.8-0.2,1.5-0.4,2.4-0.6c0.8-0.3,1.5-0.7,2.1-1.3c0.3,0,0.6-0.1,0.9-0.3
		c0.3-0.1,0.5-0.3,0.7-0.4l0.7-0.4c0.2-0.2,0.5-0.3,0.8-0.4c0.2-0.2,0.4-0.4,0.5-0.6c0.2-0.2,0.4-0.4,0.6-0.5
		c-0.1-0.4-0.3-0.6-0.6-0.8c-0.3-0.2-0.6-0.4-0.8-0.7H34c-0.6-0.4-1.2-0.6-1.9-0.8c-0.7-0.2-1.3-0.4-2-0.6c0,0-0.1,0-0.2,0
		c-0.2,0-0.3,0.1-0.3,0.2c0,0.1-0.1,0.2-0.3,0.1c-0.2-0.1-0.4-0.2-0.7-0.3c-0.2,0-0.5-0.1-0.7-0.1c-0.3,0-0.6,0-0.9,0.1
		c-0.3,0-0.6,0.1-0.9,0.1c-0.2,0-0.3,0-0.5,0c-0.2,0-0.3-0.1-0.5-0.2h-0.4c-0.5,0-1,0-1.4,0.1c-0.5,0-0.9,0.1-1.4,0.1
		c-0.3,0-0.5,0-0.7,0c-0.2,0-0.5,0-0.7-0.1c-0.5,0.2-1,0.4-1.5,0.5c-0.6,0.1-1.1,0.2-1.7,0.2c-0.6,0-1.2,0.1-1.7,0.1
		c-0.6,0-1.1,0.1-1.7,0.2c-0.1,0-0.3,0-0.4-0.1c-0.1,0-0.2,0-0.4,0c-0.1,0-0.2,0-0.4,0c-0.1,0-0.2,0-0.4,0.1
		c-0.3-0.3-0.7-0.6-1.1-0.7c-0.4-0.1-0.8-0.2-1.3-0.3c-0.3-0.4-0.6-0.8-0.7-1.2C9.1,31.5,9,31.1,9,30.6h0.1c0.2,0,0.2-0.1,0.2-0.2
		c0-0.2,0-0.3,0.2-0.4c0.1-0.1,0.3-0.2,0.5-0.3c0.2-0.1,0.4-0.1,0.6-0.2c0.2-0.1,0.4-0.2,0.5-0.3c0.2-0.1,0.3-0.3,0.4-0.5h0.4
		c0.1,0,0.2,0,0.3,0c0.1,0,0.2,0.1,0.3,0.1c0.1-0.1,0.2-0.2,0.3-0.2c0.1-0.1,0.3-0.1,0.4-0.2c0.1-0.1,0.2-0.1,0.3-0.2
		c0.1-0.1,0.1-0.2,0.2-0.4c0,0.1,0.1,0.1,0.2,0.1c0.1,0,0.2,0,0.3-0.1c0.1,0,0.2-0.1,0.3,0c0.1-0.3,0.3-0.5,0.6-0.5
		c0.3,0,0.5-0.1,0.8-0.2c0.2-0.1,0.3-0.2,0.4-0.3c0.1-0.1,0.3-0.2,0.4-0.4l2.1-1.6l3.2-2.4c1.1-0.8,2.1-1.5,3.2-2.2
		c0-0.1,0.1-0.2,0.2-0.3c0.1-0.1,0.2-0.1,0.3-0.2c0.1-0.1,0.2-0.2,0.2-0.3c0.1-0.1,0.1-0.2,0.1-0.4c0.3-0.1,0.6-0.2,0.7-0.4
		c0.2-0.2,0.3-0.4,0.5-0.6c0.1-0.2,0.3-0.4,0.4-0.7c0.1-0.2,0.3-0.4,0.6-0.5c0-0.1,0-0.2,0-0.3c0-0.2,0-0.4,0.1-0.6
		c0-0.2,0.1-0.3,0.3-0.5c-0.2-0.5-0.6-0.8-1.1-1c-0.5-0.2-1-0.4-1.4-0.6h-0.1c-0.1,0-0.2,0.1-0.2,0.2c0,0.1-0.1,0.2-0.2,0.2
		C25,14.1,24.6,14,24.1,14c-0.5,0-0.9,0-1.4,0.1c-0.4,0.1-0.9,0.1-1.4,0c-0.1,0.1-0.1,0.2-0.2,0.3c-0.1,0.1-0.2,0.2-0.3,0.2
		c-0.5,0-1,0.1-1.4,0.2L18,15.2l-0.8,0.2c-0.1,0-0.2,0.1-0.2,0.2c0,0.1-0.1,0.2-0.1,0.4c-0.1,0-0.2-0.1-0.3-0.2
		c0-0.1-0.1-0.2-0.3-0.2c-0.5,0.3-1.1,0.6-1.7,0.8c-0.6,0.2-1.2,0.5-1.6,1c-0.2-0.2-0.4-0.3-0.7-0.3c-0.3,0-0.5,0.1-0.8,0.2
		C11.2,17.5,11,17.7,11,18c-0.2,0-0.4-0.1-0.5-0.1c-0.3,0-0.5,0.1-0.6,0.2c-0.2,0.1-0.3,0.3-0.5,0.5c-0.2,0.2-0.3,0.3-0.5,0.5
		c-0.2,0.2-0.4,0.3-0.7,0.3c0,0.1,0,0.2,0,0.4c0,0.1,0,0.3,0,0.4c0,1-0.1,2.1-0.2,3.1c-0.1,1-0.2,2-0.2,3.1c0,0.2,0,0.5,0,0.7
		c0,0.2,0,0.5,0,0.7c0,0.1-0.1,0.2-0.2,0.4c-0.1,0.2-0.2,0.4-0.2,0.5c0.1,0.3,0.1,0.5,0.1,0.8c0,0.3,0,0.5,0.2,0.7
		c-0.2,0.2-0.3,0.4-0.3,0.8c0,0.1,0,0.3,0,0.4c0,0.1,0,0.3,0,0.4v0.4c-0.1,0.5-0.1,0.9-0.1,1.4c0,0.5,0,0.9,0,1.4c0,0.2,0,0.6,0,1
		c0,0.5,0,1,0.1,1.7c0,0.6,0.1,1.2,0.2,1.9c0.1,0.6,0.2,1.2,0.4,1.8c0.1,0.5,0.3,1,0.6,1.3C8.8,42.9,9.1,43,9.4,43
		c0.1,0,0.2,0,0.3,0c0.1,0,0.2-0.1,0.2-0.2c0-0.1,0-0.2-0.1-0.2c0-0.1-0.1-0.1-0.1-0.2l0-0.1c0.2,0.1,0.4,0.1,0.6,0.2
		c0.2,0,0.4,0,0.7,0.1c0.2,0,0.4,0.1,0.7,0.1c0.2,0.1,0.4,0.2,0.6,0.4c-0.1,0.2-0.1,0.4-0.1,0.6c0,0.3,0.1,0.5,0.2,0.8
		c0.1,0.2,0.2,0.5,0.3,0.7c-0.4,0.1-0.8,0.3-1.2,0.5c-0.4,0.2-0.7,0.3-1,0.5c-0.3,0.1-0.7,0.3-1.1,0.4c-0.4,0.1-0.8,0.2-1.3,0.3
		c-0.3-0.2-0.6-0.4-0.8-0.6c-0.2-0.2-0.5-0.3-0.9-0.3c-0.6-0.8-1.1-1.7-1.5-2.7c-0.4-1-0.7-2-0.9-3.1c-0.2-1.1-0.4-2.2-0.4-3.2
		c-0.1-1.1-0.1-2.1-0.1-3.1c0-1.1,0-2.1,0.1-3.1c0.1-1,0.2-2.1,0.3-3.1c0-0.3,0.1-0.6,0.1-1c0-0.3,0.1-0.7,0.1-1
		c0-0.1,0.1-0.2,0.1-0.4c0-0.1,0.1-0.3,0.1-0.4c0-0.4,0-0.8,0-1.2c0-0.4,0-0.8,0-1.1c0-0.6,0-1.2,0.1-1.8c0-0.1,0.1-0.3,0.1-0.4
		c0.1-0.2,0.1-0.3,0.1-0.5c0-0.2,0-0.3-0.1-0.4C4.1,19.2,4,19.1,3.9,19C4,18.7,4,18.5,4.1,18.3c0-0.2,0.1-0.4,0.1-0.7
		c0-0.4-0.1-0.8-0.2-1.1c0.1-0.6,0.3-1.2,0.5-1.8s0.6-1,1.2-1.3c0.5,0,0.9,0.1,1.4,0.1c0.5,0.1,0.9,0.3,1.2,0.6
		C8.4,14.1,8.6,14,8.8,14l0.7-0.1c0.2,0,0.4-0.1,0.6-0.1c0.2-0.1,0.3-0.2,0.5-0.4c0.5-0.1,1-0.2,1.5-0.4c0.5-0.2,1-0.4,1.4-0.6h0.8
		c0.2-0.1,0.3-0.2,0.6-0.2l0.7-0.2c0.2-0.1,0.4-0.1,0.6-0.2c0.2-0.1,0.3-0.2,0.5-0.3h0.1c0.5,0,1-0.1,1.5-0.3c0.5-0.2,1-0.4,1.5-0.6
		c0.1,0,0.3-0.1,0.5-0.2c0.2-0.1,0.4-0.2,0.5-0.2c0.3,0,0.6-0.1,1-0.1c0.3,0,0.6-0.1,1-0.1c0.7-0.1,1.5-0.2,2.2-0.4
		c0.7-0.1,1.4-0.2,2.2-0.2c0.3,0,0.5,0,0.7,0c0.2,0,0.5,0,0.7,0.1c0,0.1,0.1,0.2,0.2,0.2c0.1,0.1,0.2,0.1,0.3,0.2
		c0.1,0,0.2,0.1,0.2,0.2c0.1,0.1,0.1,0.2,0.1,0.3c0,0,0.1,0.1,0.1,0.1c0.1,0,0.1,0,0.2-0.1c0.1-0.1,0.1-0.1,0.3-0.1h0.2
		c0.3,0.3,0.6,0.6,0.9,0.9c0.3,0.3,0.6,0.5,1.1,0.7c0.2,0.7,0.4,1.4,0.7,2c0.3,0.7,0.4,1.4,0.4,2.1c0,0.5-0.1,0.9-0.2,1.3
		c-0.3,0.2-0.6,0.4-0.7,0.8c-0.1,0.3-0.3,0.7-0.4,1c-0.6,0.3-1.2,0.7-1.6,1.3c-0.4,0.5-0.9,1.1-1.3,1.6h-0.6c-0.1,0-0.2,0-0.2,0.1
		l-0.3,0.3c-0.2,0.2-0.4,0.4-0.7,0.6c-0.2,0.2-0.4,0.4-0.5,0.7c-0.7,0.4-1.4,0.8-2,1.3c-0.7,0.5-1.3,1-1.9,1.5
		c-0.3,0.2-0.5,0.4-0.8,0.7c-0.3,0.3-0.5,0.5-0.8,0.7c-0.1,0.1-0.3,0.2-0.5,0.3c-0.2,0.1-0.3,0.2-0.5,0.3c-0.3,0.2-0.6,0.5-0.8,0.7
		c-0.3,0.2-0.5,0.5-0.8,0.7c1,0,2.1-0.1,3.1-0.1c1.1,0,2.1,0,3.1-0.1c0.5,0,1,0,1.5-0.1c0.5,0,1-0.1,1.5-0.1c0.1,0,0.2,0,0.2,0.1
		c0.1,0,0.1,0.1,0.2,0.1c0.4,0.1,0.7,0.1,1,0.2c1.1,0.2,2.2,0.4,3.3,0.6c1.1,0.2,2.2,0.4,3.2,0.8c0.3,0.1,0.5,0.2,0.7,0.4
		c0.1,0.1,0.4,0.2,0.8,0.1c0.3,0.3,0.7,0.6,1,0.8c0.4,0.2,0.8,0.3,1.2,0.5c0.3,0.5,0.6,0.9,0.8,1.3C40.6,34.6,40.7,35.1,40.7,35.7z"
		/>
	<path d="M50,36.8c-0.1,0.2-0.3,0.3-0.4,0.5c-0.2,0.1-0.3,0.3-0.4,0.5c-0.2,0.1-0.3,0.1-0.5,0.1c-0.2,0-0.4,0-0.6,0
		c-0.2,0-0.3,0-0.5,0c-0.1,0-0.3,0.1-0.4,0.2c-0.2,0-0.3-0.1-0.4-0.3c-0.1-0.1-0.3-0.2-0.5-0.2c-0.1,0-0.2,0-0.3,0
		c-0.3-0.4-0.7-0.8-0.9-1.2c-0.3-0.4-0.6-0.8-0.8-1.2c0-0.8-0.1-1.7-0.2-2.6c0-0.2-0.1-0.4-0.1-0.6c0-0.2-0.1-0.4-0.1-0.6
		c0-0.2,0-0.5,0.1-0.7c0-0.2,0.1-0.4,0.1-0.6c0.1-0.7,0.2-1.3,0.3-2c0.1-0.6,0.2-1.3,0.3-2c0.1-0.6,0.1-1.2,0.1-1.9
		c0-0.7-0.1-1.3-0.3-1.8l0-0.2c0-0.2,0.1-0.3,0.2-0.5c0.1-0.1,0.1-0.3,0.1-0.4c0-0.3,0-0.4-0.2-0.6c0.1-0.2,0.2-0.3,0.3-0.4
		c0.2-0.1,0.3-0.2,0.3-0.4c0-0.1,0-0.2,0-0.3c0.2-0.1,0.4-0.1,0.6-0.2c0.2-0.1,0.4-0.1,0.6,0c0.3,0,0.6,0.1,0.8,0.3
		c0.2,0.1,0.4,0.3,0.7,0.5c0.4,1.1,0.5,2.3,0.4,3.5c-0.1,1.2-0.2,2.5-0.3,3.7c-0.2,1.2-0.3,2.4-0.3,3.6c0,1.2,0.1,2.3,0.6,3.3l0.1,0
		c0.1,0,0.2,0,0.3-0.1c0.1-0.1,0.2-0.1,0.3-0.1c0.1,0,0.1,0.1,0.2,0.1c0.1,0.5,0.2,0.9,0.4,1.3C49.5,36,49.7,36.4,50,36.8z"/>
	<path d="M82.8,19.4c-0.1,0.3-0.2,0.6-0.4,0.8L81.8,21c-0.2,0.2-0.3,0.5-0.5,0.7c-0.1,0.3-0.2,0.6-0.1,0.9c0,0-0.1,0-0.2,0
		c-0.1,0-0.1,0-0.2,0c-0.4,0-0.6,0.1-0.8,0.3c-0.2,0.2-0.5,0.3-0.8,0.4c0-0.1-0.1-0.3-0.2-0.4c-0.1-0.1-0.2-0.2-0.3-0.3
		c-0.5,0.1-1.1,0.2-1.7,0.3c-0.5,0.1-1.1,0.1-1.7,0.2c-0.3,0-0.5,0.1-0.8,0.2c-0.3,0.1-0.5,0.2-0.8,0.2c-0.1,0-0.3,0.1-0.4,0.1
		c-0.2,0-0.3,0-0.5,0c-0.5,0-1.1,0.1-1.8,0.1c-0.6,0.1-1.2,0.2-1.7,0.5c-0.2,0-0.5-0.1-0.7-0.1c-0.3,0-0.5,0-0.8,0
		c-0.5,0-1.2,0.1-1.8,0.2c-0.7,0.1-1.2,0.3-1.7,0.6c-0.1,0-0.2-0.1-0.4-0.1c-0.1,0-0.3,0-0.4,0c0,0-0.1,0-0.1,0c0,0-0.1,0-0.1,0
		c0,0.2,0,0.4,0.1,0.6c0.1,0.2,0.2,0.3,0.4,0.5c-0.1,0.3-0.1,0.5-0.1,0.8c0,0.4,0,0.8,0.1,1.2C64,28.2,64,28.6,64,29
		c0,0.4-0.1,0.8-0.2,1c0.2,0.7,0.3,1.4,0.3,2.2c0,0.3,0,0.5-0.1,0.8c0,0.3-0.1,0.5-0.1,0.8c0,0.3,0.1,0.5,0.3,0.6
		c0.2,0.1,0.3,0.3,0.3,0.6c0,0.1,0,0.2-0.1,0.3c0.3-0.1,0.6-0.2,0.9-0.3c0.3-0.1,0.6-0.2,0.9-0.2c0.2,0,0.4,0,0.5,0.1
		c0.2,0.1,0.3,0.2,0.5,0.3c0,0.1,0,0.2-0.1,0.4c0,0.1,0,0.3,0,0.4c0,0.3,0,0.5,0,0.7c0,0.2,0,0.5,0.1,0.7c-0.2,0.3-0.4,0.6-0.6,0.9
		c-0.2,0.3-0.4,0.6-0.5,1c-0.3,0-0.6,0.1-0.9,0.2c-0.3,0.1-0.5,0.3-0.7,0.5c-0.2,0.2-0.5,0.3-0.7,0.5c-0.2,0.1-0.5,0.2-0.8,0.2
		c-0.3,0-0.6-0.1-0.7-0.2c-0.1-0.1-0.2-0.2-0.3-0.3C62.1,40.1,62,40,62,39.9c-0.1-0.1-0.2-0.1-0.4-0.1c0-0.3-0.1-0.6-0.3-0.8
		c-0.1-0.3-0.3-0.5-0.4-0.8c-0.1-0.3-0.3-0.5-0.4-0.8c-0.2-0.3-0.3-0.5-0.3-0.8C60,36,60,35.4,60,34.7c0-0.6-0.1-1.3-0.3-1.9
		c0-0.3,0.1-0.6,0.1-1c0-0.3,0-0.7,0-1c0-0.6,0-1.3-0.1-1.9c0-0.6-0.1-1.3-0.1-1.9c-0.2-0.2-0.3-0.4-0.3-0.7c0-0.3-0.1-0.5-0.1-0.8
		c-0.1-0.1-0.1-0.1-0.2-0.2s-0.1-0.2-0.2-0.3c-0.2,0-0.3-0.1-0.4-0.1c-0.3,0-0.6,0.1-0.8,0.2c-0.2,0.1-0.4,0.2-0.6,0.2
		c-0.2,0-0.4,0-0.5-0.1c-0.2,0-0.3-0.1-0.5-0.1c-0.1,0-0.2,0-0.2,0.1c0,0.1-0.1,0.1-0.2,0.2c-0.1,0-0.2,0.1-0.5,0.1
		c-0.3,0-0.5,0.1-0.8,0.1c-0.3,0-0.6,0.1-0.9,0.1c-0.3,0-0.5,0-0.6,0c-0.4,0-0.6-0.1-0.8-0.2c-0.2-0.1-0.4-0.3-0.7-0.5
		c0-0.1,0.1-0.2,0.1-0.3c0-0.2-0.1-0.4-0.2-0.6S51,24.1,51,24c0-0.3,0.1-0.4,0.3-0.6c0.2-0.1,0.3-0.4,0.3-0.7
		c0.5-0.2,1.1-0.4,1.6-0.5c0.6-0.1,1.1-0.2,1.7-0.3c0.6-0.1,1.1-0.1,1.7-0.2c0.6-0.1,1.1-0.2,1.7-0.4c0.2,0,0.3,0,0.5,0.1
		c0.1,0,0.3,0,0.5,0c0.7,0,1.4-0.1,2-0.2c0.7-0.1,1.4-0.2,2.1-0.2c0.2,0,0.4,0,0.5,0c0.2,0,0.4,0.1,0.6,0.1c0.9-0.1,1.8-0.3,2.7-0.4
		c0.9-0.2,1.8-0.3,2.8-0.4c0.5,0,0.9-0.1,1.4-0.1c0.4,0,0.9-0.1,1.4-0.2c0.2,0,0.3-0.1,0.4-0.1c0.1-0.1,0.1-0.2,0.1-0.4
		c0.2,0.1,0.4,0.1,0.7,0.1c0.4,0,0.8-0.1,1.1-0.2c0.4-0.1,0.7-0.2,1.1-0.2c0.1,0,0.2,0,0.2,0c0.1,0,0.1,0,0.2,0
		c0.2,0,0.2-0.1,0.3-0.2c0-0.1,0.1-0.2,0.3-0.3c0.2,0,0.4-0.1,0.7-0.1c0.3,0,0.6-0.1,0.9-0.1c0.3,0,0.6-0.1,0.9-0.1
		c0.3-0.1,0.5-0.1,0.6-0.3l0.2-0.4c0.4,0,0.7,0.2,0.9,0.5c0.2,0.3,0.3,0.7,0.3,1.1c0.1,0.1,0.2,0.1,0.4,0.1c0.2,0,0.3,0,0.5,0H82.8z
		"/>
	<path d="M99.8,19.7v0.1c-0.2,0-0.2,0.2-0.2,0.3c-0.3,0.1-0.5,0.2-0.8,0.3c-0.3,0.1-0.5,0.1-0.8,0.3c-0.3,0-0.5,0-0.8-0.1
		c-0.3,0-0.5,0-0.8,0c-0.7,0-1.4,0-2.1,0.1c-0.7,0-1.4,0-2.1,0c-0.3,0.2-0.7,0.3-1,0.4c-0.4,0.1-0.7,0.2-1.1,0.2
		c-0.3,0-0.5,0-0.7-0.1c-0.5,0.3-1.2,0.5-1.8,0.7c-0.7,0.2-1.3,0.4-2,0.5c-0.7,0.2-1.3,0.4-1.9,0.6c-0.6,0.2-1.1,0.5-1.6,0.9
		c0,0.3-0.1,0.6-0.1,0.9c0,0.3,0,0.6,0,0.9c0,0.3,0,0.6,0.1,0.9c0,0.3,0.1,0.6,0.2,0.8c0.1,0,0.2,0.1,0.4,0.1c0.1,0,0.3,0,0.4,0
		s0.2,0,0.3-0.1c0.1,0,0.2-0.1,0.2-0.2c0.3,0,0.7-0.1,1-0.1c0.3,0,0.7,0,1,0s0.7,0,1,0c0.3,0,0.7-0.1,1-0.2c0.4-0.1,0.7-0.1,1.1-0.2
		c0.4,0,0.7,0,1-0.1c0.3,0,0.7-0.1,1.1-0.1c0.4-0.1,0.7-0.2,1.1-0.4c0.3,0.1,0.6,0.2,0.9,0.2c0.3,0,0.6,0,0.9,0.1
		c0.2,0.1,0.3,0.2,0.4,0.4c0.1,0.1,0.2,0.3,0.2,0.5c0,0.3-0.1,0.6-0.3,1c-0.2,0.3-0.4,0.6-0.6,0.9h-0.4c-0.5,0-1.1,0.1-1.6,0.2
		s-1,0.3-1.5,0.5c-0.5,0.2-1,0.4-1.5,0.5c-0.5,0.1-1,0.2-1.6,0.2c-0.1,0-0.1,0.1-0.2,0.2c0,0.1,0,0.2-0.1,0.2c-0.1,0-0.3,0-0.5,0
		c-0.5,0-1,0.1-1.5,0.2c-0.5,0.1-1,0.2-1.5,0.2c-0.1,0-0.3,0-0.4,0c-0.1,0-0.3,0-0.4-0.1c-0.1,0.2-0.3,0.3-0.4,0.4
		c-0.2,0.1-0.4,0.2-0.5,0.3c-0.1,0.2-0.1,0.5-0.1,0.8c0,0.3,0,0.6,0,0.9c0,0.3,0,0.6-0.1,0.9c0,0.3-0.1,0.5-0.3,0.7
		c0,0.1,0.1,0.2,0.3,0.1c0.2,0,0.2,0,0.2,0.2c0,0.2,0,0.4-0.1,0.7c0,0.2-0.1,0.5-0.1,0.7c0,0.4,0.1,0.9,0.2,1.4
		c0.1,0.5,0.3,1,0.5,1.4c0.2,0.4,0.5,0.8,0.9,1.1c0.4,0.3,0.8,0.4,1.4,0.4c0.4,0,0.7-0.1,1-0.2c0.3-0.1,0.6-0.4,0.8-0.7l0.2,0
		c0.1,0,0.2,0,0.3,0c0.1,0,0.2,0,0.3,0c0.1,0,0.3-0.1,0.5-0.3c0.2-0.2,0.5-0.4,0.7-0.6c0.3-0.2,0.5-0.5,0.8-0.7
		c0.3-0.2,0.5-0.4,0.8-0.5c0.2-0.3,0.3-0.6,0.5-1c0.1-0.3,0.4-0.6,0.7-0.8v-1c0.2-0.3,0.5-0.5,0.7-0.7c0.3-0.2,0.5-0.5,0.6-0.8
		c0.1,0,0.2,0.1,0.3,0.1c0.1,0,0.2,0,0.3,0s0.2,0,0.4,0c0.1,0,0.2-0.1,0.4-0.1c0.2,0.3,0.3,0.5,0.4,0.8c0.1,0.3,0.2,0.6,0.4,0.9
		c-0.2,0.4-0.4,0.9-0.7,1.5c-0.3,0.6-0.6,1.1-0.9,1.7c-0.3,0.6-0.7,1.1-1,1.6c-0.4,0.5-0.7,0.9-1,1.2c-0.1,0.1-0.2,0.1-0.4,0.2
		c-0.3,0.2-0.5,0.4-0.7,0.5c-0.2,0.2-0.4,0.4-0.6,0.6c-0.7,0.2-1.3,0.5-1.9,0.8s-1.2,0.7-1.8,1c-0.3-0.1-0.6-0.1-0.9-0.1
		c-0.3,0-0.5,0-0.8,0.1c-0.3,0-0.6,0.1-0.9,0.1c-0.1-0.1-0.2-0.2-0.4-0.2c-0.2,0-0.2-0.2-0.2-0.4c-0.8,0-1.4-0.3-1.9-0.6
		c-0.5-0.4-0.9-0.8-1.2-1.4c-0.3-0.6-0.6-1.1-0.8-1.8c-0.2-0.6-0.4-1.3-0.7-1.9v-0.1c0-0.1,0-0.2,0.1-0.2c0.1,0,0.1-0.1,0.1-0.2
		c0,0,0-0.1,0-0.1c-0.1-0.3-0.1-0.5-0.2-0.7s-0.1-0.4-0.1-0.7c0-0.4,0-0.7,0.1-1.1c0-0.4,0.1-0.7,0.1-1.1c0-0.4,0-0.7-0.1-1
		c0.1-0.1,0.2-0.3,0.2-0.5c0.1-0.2,0.1-0.4,0.1-0.6c0-0.2,0-0.4,0.1-0.6c0-0.2,0-0.4,0.1-0.6c-0.1-0.3-0.2-0.5-0.2-0.7
		c-0.1-0.2-0.1-0.4-0.1-0.7V30c0.2-0.4,0.4-0.8,0.6-1.2c0.2-0.4,0.3-0.8,0.5-1.3v-0.1c0-0.7,0-1.3-0.1-2c0-0.7-0.1-1.3-0.1-2v-0.7
		c0-0.2,0-0.4,0-0.7c0.2-0.1,0.3-0.2,0.4-0.4c0.1-0.2,0.2-0.3,0.4-0.4h1.1l0.2-0.3c0.1-0.1,0.1-0.2,0.1-0.4c0.3-0.1,0.5-0.2,0.7-0.3
		c0.2-0.1,0.5-0.3,0.7-0.4c0.3-0.2,0.6-0.3,0.9-0.5c0.3-0.1,0.5-0.3,0.8-0.4c0.3-0.1,0.5-0.2,0.8-0.3c0.3-0.1,0.6-0.1,1-0.2
		c0.2,0,0.3,0,0.4-0.1c0.1-0.1,0.1-0.1,0.3-0.2c0.3,0,0.5,0.1,0.8,0.1c0.3,0,0.5,0.1,0.8,0.1c0.5,0,1.1-0.1,1.5-0.3c0.7,0,1.4,0,2,0
		c0.7,0,1.4,0,2,0c0.6,0,1.2,0,1.8,0.1c0.6,0,1.2,0.1,1.8,0.2c0.2-0.1,0.4-0.1,0.7-0.1c0.3,0,0.6,0,0.8,0.1c0.3,0.1,0.6,0.1,0.8,0
		c0,0.3,0.1,0.5,0.2,0.6C99.8,19.2,99.8,19.4,99.8,19.7z"/>
	<path d="M36.7,81.8c0,0.2-0.1,0.3-0.2,0.4c-0.1,0.1-0.2,0.2-0.1,0.5c-0.2,0-0.3,0.1-0.5,0.3c-0.1,0.2-0.3,0.2-0.5,0.2
		c-0.1,0-0.2-0.1-0.3-0.2c0,0.2-0.1,0.3-0.3,0.3c-0.1,0.1-0.3,0.1-0.4,0.2s-0.3,0.1-0.4,0.2c-0.1,0.1-0.2,0.2-0.3,0.3h-0.2
		c-0.3,0-0.5,0.1-0.6,0.3c-0.1,0.2-0.3,0.3-0.5,0.3c-0.1,0-0.1,0-0.1,0c-0.1,0-0.2,0.1-0.1,0.2c0,0.1,0,0.2-0.1,0.3h-0.2
		c-0.6,0-1.2,0.1-1.8,0.4c-0.6,0.3-1.2,0.5-1.9,0.9c-0.6,0.3-1.3,0.6-1.9,0.9s-1.3,0.5-2,0.6c-0.1,0.1-0.3,0.2-0.5,0.3
		c-0.2,0.1-0.4,0.1-0.6,0.2s-0.5,0.1-0.7,0.2c-0.2,0.1-0.4,0.2-0.6,0.3c-0.6,0-1.1,0.1-1.7,0.3c-0.6,0.2-1.1,0.3-1.7,0.5
		c-0.6,0.1-1.1,0.3-1.7,0.4c-0.6,0.1-1.2,0.1-1.8,0.1c-0.2,0.1-0.4,0.2-0.6,0.3c-0.2,0.1-0.4,0.2-0.6,0.3c-0.9-0.1-1.9-0.2-2.8-0.3
		c-0.9-0.1-1.8-0.2-2.7-0.5c0-0.1,0-0.1-0.1-0.1c0,0-0.1,0-0.2-0.1c-0.1,0-0.1,0-0.2-0.1c0,0,0-0.1,0-0.2c-0.2,0.1-0.4,0.1-0.6,0.1
		c-0.2,0-0.5-0.1-0.7-0.2C6.5,89.3,6.2,89.2,6,89c-0.2-0.1-0.5-0.3-0.7-0.4c-0.3-0.1-0.5-0.2-0.8-0.2c-0.2-0.2-0.3-0.4-0.5-0.6
		c-0.1-0.2-0.3-0.4-0.3-0.7c-0.1,0-0.2,0-0.3,0c-0.1,0-0.2,0-0.3,0c-0.1,0-0.2,0-0.2-0.1c-0.5-0.3-0.8-0.7-1-1.1
		c-0.2-0.4-0.4-0.8-0.7-1.3c-0.1-0.2-0.2-0.3-0.3-0.4c-0.1-0.1-0.2-0.2-0.2-0.4c-0.1-0.2-0.1-0.5-0.2-0.7c0-0.3,0-0.5-0.1-0.7
		c0-0.2,0-0.5-0.1-0.7c-0.1-0.2-0.2-0.5-0.3-0.7c0-0.9,0.1-1.7,0.3-2.6c0.1-0.9,0.3-1.7,0.6-2.6c0.1-0.4,0.2-0.8,0.3-1.1
		c0.1-0.4,0.2-0.7,0.3-1.1c0-0.1,0.1-0.2,0.1-0.3s0.1-0.1,0.2-0.1l0.1-0.1c0,0,0.1-0.1,0.1-0.2l0.3-1.2c0.2-0.8,0.4-1.5,0.7-2.2
		c0.3-0.7,0.7-1.4,1.2-2c0-0.6,0.2-1.1,0.4-1.6c0.2-0.5,0.5-1,0.7-1.5c0.3-0.5,0.6-1,0.8-1.5c0.3-0.5,0.5-1,0.7-1.5l0-0.1
		c0-0.1,0.1-0.1,0.2-0.2c0.1,0,0.2,0,0.2,0c0-0.4,0.1-0.7,0.3-0.9c0.1-0.3,0.3-0.5,0.5-0.7c0.2-0.2,0.3-0.5,0.5-0.7
		c0.1-0.3,0.2-0.6,0.3-0.9c0.4-0.3,0.8-0.6,1.1-0.9c0.3-0.4,0.6-0.8,0.9-1.2c0.3-0.4,0.6-0.8,0.9-1.2c0.3-0.4,0.7-0.7,1.2-0.9
		c0.1-0.1,0.1-0.3,0.1-0.6c0.7-0.5,1.4-1,2.2-1.4c0.8-0.4,1.5-0.9,2.1-1.4h1.2c0.3-0.2,0.6-0.3,1-0.3c0.3,0,0.5,0.1,0.8,0.2
		c0.3,0.1,0.5,0.2,0.8,0.4c0.2,0.1,0.5,0.3,0.7,0.4c0.3,0.1,0.5,0.3,0.8,0.3c0.3,0.3,0.4,0.7,0.5,1.2c0.1,0.4,0.2,0.9,0.3,1.3
		c-0.2,0.6-0.3,1.3-0.4,1.9c0,0.7-0.1,1.3-0.2,1.9c-0.2,0.2-0.3,0.4-0.4,0.6c-0.1,0.2-0.2,0.4-0.4,0.7c-0.1,0.2-0.3,0.4-0.4,0.6
		c-0.1,0.2-0.3,0.4-0.6,0.5c-0.2,0.7-0.5,1.2-0.9,1.6s-0.8,0.8-1.1,1.4c-0.3,0.2-0.7,0.3-1.1,0.3c-0.3,0-0.6-0.1-0.9-0.2
		c-0.3-0.1-0.5-0.3-0.7-0.6c-0.2-0.2-0.4-0.5-0.5-0.8s-0.2-0.6-0.3-0.8c0.2-0.5,0.4-0.9,0.8-1.2c0.4-0.3,0.7-0.7,1.1-1
		c0.4-0.3,0.7-0.7,1-1.1c0.3-0.4,0.4-0.9,0.4-1.4c0,0,0-0.1,0-0.1c0,0,0-0.1,0-0.1c0-0.1,0-0.2,0.1-0.2c0.1-0.1,0.1-0.1,0.2-0.2
		l0.2-0.2c0.1-0.1,0.1-0.1,0.1-0.2c0-0.1,0-0.2-0.1-0.3c-0.9,0.1-1.5,0.2-2,0.4c-0.4,0.2-0.8,0.5-1,0.8c-0.3,0.3-0.5,0.5-0.7,0.8
		c-0.2,0.3-0.5,0.5-0.8,0.6c-0.1,0.2-0.2,0.3-0.3,0.5c-0.1,0.1-0.3,0.3-0.4,0.4c-0.1,0.1-0.3,0.3-0.4,0.4s-0.2,0.4-0.2,0.6h-0.6
		c-0.1,0.2-0.2,0.4-0.4,0.6c-0.2,0.2-0.3,0.4-0.5,0.6c-0.2,0.2-0.3,0.4-0.4,0.6c-0.1,0.2-0.2,0.5-0.1,0.7c-0.3,0.1-0.4,0.2-0.6,0.4
		c-0.1,0.2-0.3,0.4-0.5,0.5v0.2c0,0.2,0,0.4-0.1,0.5c-0.1,0.2-0.1,0.3,0,0.5c-0.3,0.3-0.5,0.6-0.6,0.9c-0.1,0.4-0.3,0.7-0.4,1
		c-0.3,0.2-0.5,0.4-0.7,0.7c-0.1,0.3-0.2,0.6-0.2,1c-0.3,0.3-0.7,0.7-0.9,1.2c-0.3,0.5-0.5,0.9-0.7,1.4c-0.2,0.5-0.4,1-0.6,1.5
		c-0.2,0.5-0.4,1-0.6,1.4v1c-0.3,0.4-0.5,0.8-0.7,1.3c-0.1,0.5-0.3,0.9-0.6,1.3c0,0.3-0.1,0.5-0.1,0.8c0,0.3,0,0.5,0,0.8
		c0,0.3,0,0.6-0.1,0.9c0,0.3-0.1,0.6-0.2,0.8c0.1,0.3,0.2,0.8,0.2,1.2c0,0.5,0.1,0.9,0.2,1.4c0.1,0.5,0.3,0.9,0.5,1.3
		C5,83.7,5.3,84,5.7,84.1C5.8,84.6,6,85,6.3,85.3c0.4,0.3,0.8,0.5,1.2,0.6C8,86.1,8.5,86.2,9,86.3c0.5,0.1,0.9,0.3,1.3,0.5
		c0.1-0.1,0.3-0.1,0.5-0.1c0.2,0,0.3,0,0.5,0.1c0.1,0,0.3,0.1,0.5,0.1c0.3,0,0.7-0.1,1.2-0.1c0.5,0,0.9,0,1.4-0.1
		c0.5,0,0.9-0.1,1.3-0.2s0.7-0.3,1-0.5c0.2,0,0.3,0,0.3,0.1c0.1,0.1,0.2,0.1,0.3,0.1s0.4,0,0.7-0.1c0.3-0.1,0.7-0.2,1-0.3
		c0.3-0.1,0.7-0.2,1-0.3c0.3-0.1,0.5-0.2,0.7-0.3c0.1,0,0.1,0,0.2,0h0.2c0.3,0,0.6-0.1,0.9-0.2c0.3-0.1,0.6-0.1,0.9-0.1
		c1.1-0.5,2.1-1,3.2-1.4c1.1-0.4,2.2-0.7,3.3-1c0.1-0.2,0.3-0.4,0.5-0.4c0.2-0.1,0.4-0.2,0.6-0.2s0.5-0.1,0.7-0.1
		c0.2,0,0.4-0.1,0.7-0.2c0.1-0.1,0.3-0.2,0.4-0.3c0.1-0.1,0.2-0.2,0.4-0.3c0.2-0.1,0.3-0.1,0.5-0.1c0.2,0,0.4-0.1,0.6-0.1
		c0.2,0,0.4-0.1,0.6-0.2c0.2-0.1,0.3-0.2,0.4-0.3c0.3,0.1,0.6,0.3,1,0.4c0.3,0.2,0.6,0.4,0.8,0.7L36.7,81.8z"/>
	<path d="M50.2,74.9c0,0.3-0.1,0.4-0.3,0.6c-0.2,0.1-0.3,0.3-0.3,0.5c0,0.1,0,0.2,0.1,0.3c-0.3,0-0.5,0.1-0.7,0.3
		c-0.1,0.2-0.2,0.4-0.3,0.7h-0.4c-0.1,0-0.2,0-0.3,0.1c-0.1,0-0.1,0.1-0.2,0.2c-0.1,0.1-0.1,0.2-0.2,0.4c-0.4,0.1-0.9,0.2-1.3,0.4
		c-0.4,0.2-0.8,0.4-1.2,0.6c-0.4,0.2-0.8,0.4-1.2,0.7c-0.4,0.2-0.8,0.4-1.2,0.5c-0.2,0.3-0.5,0.6-0.9,0.8h-0.1c-0.1,0-0.2,0-0.3-0.1
		c-0.1-0.1-0.2-0.1-0.3-0.1c-0.1,0-0.1,0-0.1,0c-0.7,0.5-1.5,0.7-2.3,0.7c-0.2,0-0.4,0-0.7-0.1c-0.2,0-0.4-0.1-0.7-0.1
		c-0.1,0-0.1,0-0.1,0.1l-0.1,0.1c0,0-0.1,0.1-0.1,0.1c0,0-0.1,0.1-0.3,0.1c-0.3,0-0.5,0-0.8-0.1c-0.3-0.1-0.5-0.1-0.8,0
		c-0.5-0.3-0.9-0.6-1.2-0.9c-0.3-0.3-0.6-0.7-0.8-1.2c-0.1-0.3-0.3-0.5-0.5-0.7c-0.2-0.2-0.3-0.5-0.4-0.8c0-0.1-0.1-0.3-0.1-0.5
		c0-0.2-0.1-0.5-0.1-0.8c0-0.3-0.1-0.5-0.1-0.8c0-0.3-0.1-0.4-0.1-0.5c0-0.3,0-0.5,0.1-0.8c0-0.3,0.1-0.5,0.1-0.8
		c0.1-0.9,0.2-1.7,0.3-2.6c0.1-0.9,0.2-1.7,0.6-2.6c0-0.3-0.1-0.5-0.1-0.7v-0.8c0-0.4-0.1-0.8-0.2-1.1c0.2-0.3,0.3-0.6,0.3-1
		c0-0.4-0.2-0.7-0.5-0.7v-0.1c0-0.5-0.2-0.9-0.5-1.1c0-0.8,0.2-1.4,0.6-1.8c0.4-0.4,0.9-0.8,1.6-1c0.1-0.1,0.1-0.3,0.1-0.3
		c0.2,0,0.3,0.1,0.4,0.1c0.1,0,0.3,0.1,0.4,0.1c0.2,0,0.4,0,0.6-0.1c0.1,0.3,0.2,0.4,0.5,0.5c0.3,0.1,0.5,0.1,0.7,0.2v0.4
		c0,0.7,0.2,1.4,0.5,2c-0.1,0.2-0.1,0.4-0.2,0.6c0,0.2,0,0.4,0,0.6c0,0.3,0,0.5,0,0.8c0,0.3,0,0.5,0,0.8c0,0.3,0,0.6-0.1,0.8
		c-0.1,0.3-0.2,0.5-0.4,0.7c0,0.3,0,0.6-0.1,1c0,0.4,0,0.8-0.1,1.2c0,0.4-0.1,0.8-0.2,1.1c-0.1,0.4-0.2,0.7-0.4,0.9
		c0,0.3,0,0.7-0.1,1c0,0.4,0,0.7,0,1c0,0.5,0,1.1,0.1,1.8c0.1,0.7,0.2,1.3,0.5,1.7c0.1,0.2,0.3,0.3,0.7,0.4c0.3,0.1,0.6,0.1,0.8,0.1
		c0.3,0,0.5,0,0.8-0.1c0.3-0.1,0.5-0.2,0.6-0.4c0.1,0,0.2,0.1,0.3,0.2c0,0.1,0.1,0.2,0.2,0.3c1.3-0.6,2.6-1.1,3.9-1.6
		c1.3-0.5,2.6-1.1,3.9-1.8c0.2,0.1,0.4,0.1,0.6,0.1c0.2,0,0.5,0,0.7-0.1c0.2,0,0.5-0.1,0.7-0.1h0.2C50.2,74.8,50.2,74.9,50.2,74.9z"
		/>
	<path d="M71.4,78.2c-0.1,0.3-0.2,0.6-0.4,0.9c-0.2,0.2-0.4,0.4-0.7,0.6c-0.3,0.2-0.5,0.4-0.8,0.5c-0.3,0.1-0.6,0.3-0.9,0.5h-0.4
		c-1,0-1.7-0.2-2.2-0.7c-0.5-0.5-0.9-1.1-1.2-1.8s-0.5-1.4-0.6-2.3c-0.1-0.8-0.3-1.5-0.5-2.2c-0.3,0.2-0.5,0.5-0.7,0.8
		c-0.2,0.3-0.4,0.6-0.6,0.9c-0.2,0.3-0.4,0.6-0.7,0.8c-0.2,0.3-0.6,0.4-0.9,0.5c-0.1,0.2-0.1,0.3-0.2,0.5c-0.1,0.2-0.1,0.3-0.2,0.5
		c-0.5,0.3-1,0.6-1.4,1c-0.4,0.4-0.8,0.7-1.2,1.1c-0.4,0.4-0.8,0.8-1.3,1.1c-0.4,0.4-0.9,0.6-1.4,0.9c0,0-0.1,0-0.1,0
		c-0.3,0-0.5,0.1-0.8,0.2c-0.2,0.1-0.5,0.2-0.8,0.2c-0.2,0-0.3,0-0.5-0.1c-0.1-0.1-0.3-0.1-0.4-0.2c-0.2-0.1-0.3-0.2-0.5-0.2
		c-0.2,0-0.3-0.1-0.5,0c-0.2-0.4-0.5-0.8-0.9-1.2c-0.4-0.4-0.6-0.8-0.7-1.2c0-0.2-0.1-0.4-0.1-0.6c0-0.2,0-0.4-0.1-0.7
		c-0.1-0.3-0.2-0.7-0.3-1c-0.1-0.4-0.2-0.7-0.3-1.1c0.1-0.6,0.2-1.3,0.3-2c0.1-0.7,0.2-1.5,0.4-2.2c0.1-0.7,0.4-1.5,0.6-2.1
		c0.3-0.7,0.6-1.3,1-1.7l0-0.2c0-0.4,0.1-0.7,0.2-1c0.1-0.3,0.3-0.6,0.4-0.9c0.2-0.3,0.3-0.6,0.4-0.9s0.1-0.6,0.1-1
		c0.3-0.1,0.6-0.3,0.9-0.3c0.3-0.1,0.6-0.1,0.9-0.1c0.3,0,0.6,0,0.8,0.1c0,0.2,0,0.3,0.2,0.3v0.1c0,0.5-0.1,1-0.2,1.4
		c-0.1,0.5-0.3,0.9-0.4,1.4c-0.2,0.4-0.3,0.9-0.5,1.3c-0.2,0.4-0.3,0.9-0.3,1.4c-0.1,0-0.2,0.1-0.2,0.1c0,0.1-0.1,0.1-0.1,0.2
		c0,0.1-0.1,0.1-0.1,0.2c0,0-0.1,0.1-0.2,0.1c-0.1,0.8-0.3,1.6-0.4,2.4c-0.1,0.8-0.2,1.6-0.2,2.4c0,0.5,0,1,0.1,1.5
		c0.1,0.5,0.3,1,0.5,1.4l0.1,0c0.3,0,0.5,0.1,0.6,0.2c0.1,0.1,0.3,0.2,0.6,0.3c0.2,0,0.4-0.1,0.5-0.2c0.2-0.1,0.2-0.2,0.2-0.4
		c0.3,0,0.5-0.1,0.8-0.2c0.2-0.1,0.4-0.3,0.5-0.4l0.5-0.5c0.2-0.2,0.4-0.3,0.7-0.3c0-0.1,0-0.2,0.1-0.3l0.2-0.2
		c0.1-0.1,0.1-0.1,0.2-0.2c0-0.1,0-0.2,0-0.4c0.3,0,0.5-0.1,0.6-0.2c0.1-0.1,0.3-0.2,0.4-0.4c0.1-0.1,0.2-0.3,0.4-0.5
		c0.1-0.2,0.3-0.3,0.4-0.4c0.2-0.3,0.4-0.8,0.7-1.4c0.3-0.6,0.6-1.2,0.9-1.8c0.3-0.6,0.5-1.2,0.8-1.8c0.2-0.6,0.3-1,0.3-1.3
		c0-0.1,0-0.2-0.1-0.3c-0.1-0.1-0.1-0.2-0.1-0.3v-0.1c0.2-0.2,0.3-0.5,0.5-0.8c0.1-0.3,0.3-0.5,0.5-0.8c0.2-0.3,0.4-0.5,0.6-0.7
		c0.2-0.2,0.5-0.4,0.8-0.5c0.4,0.1,0.7,0.2,1.1,0.2c0.4,0,0.7,0.1,1.1,0.3c0,0.6,0.1,1.2,0.2,2c0.1,0.8,0.3,1.4,0.5,1.9
		c0,0.3,0,0.6,0,0.9c0,0.3,0,0.5,0,0.8c0,0.5,0,0.9,0.1,1.4s0.1,0.9,0.2,1.3c-0.2,0.3-0.2,0.7-0.2,1.1c0,0.5,0.1,1,0.2,1.5
		c0.2,0.5,0.3,1,0.3,1.5c0.3,0.4,0.7,0.6,1.2,0.6c0.1,0,0.2,0,0.3,0c0.1,0,0.2-0.1,0.3-0.1c0.2,0.2,0.3,0.4,0.5,0.6
		C71,77.9,71.2,78.1,71.4,78.2z"/>
	<path d="M98.3,59.5c0,0.2,0,0.4-0.1,0.6l-0.2,0.5c-0.1,0.2-0.1,0.3-0.2,0.5c-0.1,0.2-0.1,0.4-0.1,0.7c-0.3,0.4-0.6,0.7-1,1.1
		c-0.3,0.3-0.6,0.7-0.9,1.2c-0.3,0-0.4,0-0.6,0.2s-0.2,0.3-0.3,0.5c-0.5,0.2-0.9,0.4-1.3,0.7c-0.4,0.3-0.7,0.7-1,1.1
		c-1.2,0.5-2.4,1.1-3.4,1.9c-1.1,0.7-2,1.6-2.9,2.6c0.4,0,0.8,0,1.2,0.1c0.4,0.1,0.8,0.2,1.2,0.3c0.4,0.1,0.8,0.2,1.2,0.3
		c0.4,0.1,0.8,0.1,1.2,0.1c0.3,0.3,0.6,0.5,1,0.7c0.4,0.2,0.8,0.4,1.1,0.5c0.4,0.2,0.7,0.3,1.1,0.6c0.4,0.2,0.7,0.5,0.9,0.8
		c0,0,0,0.1,0,0.1c0,0,0,0.1,0,0.1c0,0.2,0,0.4,0.1,0.5c0.1,0.2,0.1,0.3,0.1,0.5c-0.1,0.2-0.2,0.4-0.3,0.6c-0.1,0.2-0.2,0.4-0.3,0.6
		s-0.3,0.3-0.4,0.4c-0.2,0.1-0.4,0.2-0.7,0.2c-0.1,0.4-0.3,0.7-0.5,0.9c-0.3,0.2-0.5,0.4-0.8,0.6c-0.3,0.2-0.6,0.3-0.9,0.5
		c-0.3,0.2-0.6,0.4-0.8,0.7c-0.7,0.2-1.4,0.4-2,0.7c-0.7,0.3-1.2,0.7-1.7,1.2c-0.3,0-0.7,0.1-1,0.2s-0.7,0.1-1,0.1
		c-0.5,0-0.9-0.1-1.2-0.3c-0.3-0.2-0.5-0.6-0.5-1.1c0.1-0.2,0.2-0.3,0.3-0.4l0.4-0.3c0.2-0.1,0.3-0.2,0.4-0.4
		c0.1-0.1,0.2-0.3,0.3-0.5c0,0,0.1,0,0.2,0c0.1,0,0.1,0,0.2,0c0.3,0,0.5-0.1,0.7-0.2c0.2-0.1,0.3-0.2,0.5-0.3
		c0.1-0.1,0.3-0.2,0.5-0.3c0.2-0.1,0.4-0.1,0.7-0.1c0.2-0.3,0.4-0.5,0.7-0.7c0.3-0.1,0.7-0.3,1-0.4c0.3-0.1,0.7-0.3,1-0.4
		c0.3-0.2,0.5-0.4,0.6-0.8c-0.1-0.2-0.3-0.3-0.4-0.4c-0.2-0.1-0.4-0.2-0.6-0.3l-0.7-0.2c-0.2-0.1-0.4-0.1-0.5-0.2
		c-0.3,0.1-0.5,0.1-0.7,0.1c-0.5,0-1,0-1.4-0.1c-0.5-0.1-0.9-0.1-1.4-0.1c-0.4,0-0.8,0.1-1.1,0.2c-0.1,0-0.2-0.1-0.4-0.1
		c-0.1,0-0.2-0.1-0.4-0.1c-0.5,0.2-1.1,0.3-1.7,0.3h-2.2c-0.2,0-0.4,0-0.5,0.1c-0.3,0.5-0.4,1-0.4,1.5c0,0.4,0.1,0.8,0.2,1.1
		s0.2,0.7,0.3,1.1c0.5,0.4,0.9,0.9,1.3,1.5c0.4,0.6,0.6,1.2,0.6,1.8c0,0.2,0,0.3,0,0.4c-0.2-0.2-0.5-0.2-0.9-0.2
		c-0.3,0-0.6,0-0.9,0.1c-0.3,0.1-0.6,0.2-0.9,0.2c-0.3-0.1-0.5-0.2-0.8-0.4c-0.3-0.1-0.5-0.3-0.8-0.5c-0.2-0.4-0.4-0.8-0.6-1.1
		c-0.2-0.4-0.4-0.7-0.7-1v-0.1c0-0.8-0.1-1.6-0.2-2.4c-0.1-0.8-0.2-1.6-0.2-2.4c0-0.4,0-0.7,0.1-1.1c0-0.4,0.1-0.7,0.3-1
		c-0.1-0.5-0.1-1.1-0.1-1.7c0-1.2,0.1-2.4,0.2-3.6c0.1-1.2,0.2-2.4,0.2-3.6c0-0.3,0-0.5,0-0.8c0-0.3,0-0.5-0.1-0.8h-0.1
		c-0.3,0-0.6,0-0.9,0.1c-0.3,0.1-0.5,0.2-0.8,0.3c-0.3,0.1-0.6,0.2-0.9,0.3c-0.3,0.1-0.6,0.1-0.9,0.1c-0.2,0.1-0.3,0.2-0.4,0.3
		c-0.1,0.1-0.2,0.2-0.3,0.2c-0.1,0.1-0.2,0.1-0.4,0.2c-0.1,0-0.3,0.1-0.5,0c-0.3,0.2-0.5,0.3-0.6,0.4c-0.1,0.1-0.4,0.2-0.6,0.3
		c-0.1,0-0.3,0.1-0.3,0.2l-0.3,0.2c-0.1,0.1-0.2,0.1-0.3,0.2c-0.1,0.1-0.3,0.1-0.4,0.1c-0.2,0-0.3,0-0.3,0c-0.1-0.1-0.3-0.3-0.4-0.4
		c-0.1-0.2-0.2-0.3-0.3-0.5c-0.1-0.1-0.2-0.3-0.3-0.4c-0.1-0.1-0.3-0.2-0.5-0.3c0.1-0.1,0.1-0.2,0.1-0.3c0-0.1,0-0.2,0-0.3
		c0-0.1,0-0.1,0-0.1c0.1-0.4,0.3-0.7,0.6-1c0.3-0.2,0.6-0.4,1-0.6c0.4-0.1,0.7-0.3,1.1-0.4c0.4-0.1,0.7-0.3,1-0.4
		c0.9,0,1.7-0.1,2.4-0.3c0.7-0.2,1.5-0.5,2.3-0.8c0.1,0.1,0.3,0.1,0.4,0.1c0.1,0,0.2,0,0.3,0l0.3-0.1c0.3-0.2,0.6-0.4,0.9-0.4
		c0.3-0.1,0.6-0.1,1-0.2c0.3,0,0.6-0.1,0.9-0.2c0.3-0.1,0.6-0.2,0.8-0.4h0.1c0.5,0,1.1-0.1,1.7-0.3c0.6-0.2,1.1-0.3,1.6-0.2
		c0.5-0.3,0.9-0.4,1.3-0.5c0.4-0.1,0.8-0.1,1.3-0.1c0.1,0,0.3-0.1,0.4-0.2s0.4-0.2,0.6-0.2c0,0,0.1,0,0.1,0c0,0,0.1,0,0.1,0
		c0.2,0,0.4-0.1,0.4-0.2s0.3-0.2,0.6-0.2c0.2,0,0.3,0,0.4,0c0.1,0,0.3,0,0.4,0c0.2,0,0.3-0.1,0.3-0.2c0-0.1,0.1-0.2,0.3-0.2
		C89,56,89.1,56,89.2,56c0.2,0,0.3,0,0.4,0c0.2,0,0.3,0,0.3,0.1c0.4-0.2,0.8-0.4,1.2-0.4c0.4-0.1,0.9-0.1,1.3-0.1c0.2,0,0.3,0,0.5,0
		c0.2,0,0.3,0,0.5,0.1c0.2-0.1,0.4-0.2,0.7-0.2c0.2,0,0.4,0.1,0.8,0.2c0.4,0.1,0.7,0.3,1.1,0.5c0.4,0.2,0.7,0.4,1.1,0.6
		c0.3,0.2,0.5,0.4,0.6,0.5c0,0,0.1,0.1,0.1,0.3c0,0.2,0,0.3,0.1,0.4c0.1,0.3,0.2,0.5,0.3,0.8C98.3,59,98.3,59.2,98.3,59.5z
		 M94.5,59.9c0,0,0-0.1,0-0.2c0-0.1,0-0.1,0-0.2c-0.1-0.1-0.3-0.2-0.5-0.3c-0.2-0.1-0.4-0.1-0.6-0.2c-0.2,0-0.4-0.1-0.7-0.1
		c-0.2,0-0.4-0.1-0.6-0.2c-0.5,0.2-1,0.2-1.6,0.2c-0.5,0-1-0.1-1.4-0.2c-0.2,0.2-0.5,0.4-0.8,0.5c-0.3,0.1-0.7,0.2-1,0.3
		c-0.4,0.1-0.7,0.1-1.1,0.1c-0.4,0-0.7,0-0.9,0c-0.1,0-0.3,0.1-0.5,0.2c-0.2,0.1-0.4,0.2-0.6,0.2c-0.1,0-0.3-0.1-0.4-0.2
		c-0.2,0.2-0.5,0.3-0.9,0.4c-0.4,0.1-0.7,0.2-1.1,0.3c-0.4,0.1-0.8,0.2-1.2,0.3c-0.4,0.1-0.7,0.2-1,0.3c-0.3,0.6-0.4,1.2-0.4,1.9
		c0,0.7,0,1.4,0,2c0,0.4,0,0.8-0.1,1.1c0,0.4-0.1,0.7-0.1,1.1c0,0.2,0,0.4,0,0.6c0,0.2,0.1,0.4,0.2,0.6c-0.2,0.1-0.3,0.3-0.4,0.5
		c-0.1,0.2-0.1,0.4-0.1,0.6c0,0.3,0,0.5,0.1,0.7c0,0.2,0.1,0.4,0.1,0.6c0.7-0.1,1.4-0.2,2-0.4c0.6-0.2,1.2-0.5,1.7-0.8
		c0.5-0.3,1.1-0.6,1.6-1c0.5-0.4,1-0.8,1.6-1.2c0.2,0,0.4-0.1,0.6-0.2c0.1-0.1,0.3-0.1,0.6-0.1c0.1-0.3,0.3-0.5,0.5-0.7
		c0.3-0.1,0.4-0.3,0.6-0.6c0.3-0.1,0.5-0.2,0.7-0.3c0.2-0.1,0.4-0.3,0.6-0.4c0.2-0.1,0.4-0.2,0.6-0.4c0.2-0.1,0.5-0.2,0.7-0.2
		c0.4-0.5,0.8-0.9,1.2-1.4c0.4-0.5,0.9-0.8,1.5-1.1c0.1-0.2,0.2-0.4,0.3-0.6c0.1-0.2,0.2-0.3,0.3-0.5c0.1-0.2,0.2-0.4,0.3-0.5
		C94.5,60.4,94.5,60.2,94.5,59.9z"/>
</g>
</svg>
