<?xml version="1.0" encoding="utf-8"?>
<!-- Generator: Adobe Illustrator 19.2.0, SVG Export Plug-In . SVG Version: 6.00 Build 0)  -->
<svg version="1.1" id="Layer_1" xmlns="http://www.w3.org/2000/svg" xmlns:xlink="http://www.w3.org/1999/xlink" x="0px" y="0px"
	 viewBox="0 0 200 50" style="enable-background:new 0 0 200 50;" xml:space="preserve">
<g>
	<path d="M36.2,32.3c0,0.3-0.1,0.5-0.2,0.8c-0.2,0.2-0.2,0.5-0.1,0.8c-0.1,0.2-0.2,0.3-0.3,0.4c-0.1,0.1-0.2,0.3-0.1,0.5
		c-0.5,0.2-0.9,0.5-1.3,0.9c-0.4,0.4-0.8,0.7-1.2,1c-0.3,0.2-0.5,0.3-0.7,0.4c-0.2,0.1-0.4,0.2-0.7,0.3L30.7,38
		c-0.4,0.2-0.8,0.4-1.1,0.6s-0.7,0.5-1,0.8c-0.5,0-0.9,0.1-1.4,0.4c-0.5,0.2-0.9,0.4-1.4,0.6c-0.2,0.1-0.4,0.1-0.5,0.1
		c-0.2,0-0.4,0.1-0.5,0.2l-0.5,0.2c-0.3,0.2-0.7,0.3-1.1,0.5c-0.4,0.2-0.8,0.2-1.1,0.2c-0.2,0.1-0.4,0.2-0.5,0.5
		c-0.7,0.2-1.5,0.4-2.2,0.6c-0.8,0.1-1.5,0.3-2.2,0.6c-0.2,0.1-0.5,0.3-0.7,0.4S15.6,44,15.3,44c-0.1,0.1-0.1,0.2-0.1,0.4
		c0,0.2-0.1,0.3-0.1,0.5H15c-0.1,0-0.1,0-0.1-0.1c0-0.1,0-0.1-0.1-0.1c-0.1,0-0.1,0-0.1,0c-0.3,0.1-0.6,0.1-0.8,0.2
		s-0.5,0.1-0.8,0.1c-0.2,0-0.5,0-0.8-0.1c-0.4,0-0.7-0.1-0.8-0.2c-0.1-0.1-0.2-0.2-0.3-0.4s-0.2-0.4-0.2-0.6
		c-0.1-0.2-0.1-0.4-0.2-0.6c-0.1-0.2-0.1-0.4-0.1-0.5c0.1-0.2,0.2-0.4,0.3-0.6c0.2-0.2,0.3-0.4,0.4-0.6c0.2,0,0.4-0.1,0.6-0.1
		c0.2,0,0.4-0.1,0.6,0c0.7-0.2,1.4-0.4,2.1-0.6c0.7-0.2,1.4-0.4,2.1-0.6c0.7-0.2,1.4-0.4,2-0.7c0.7-0.2,1.3-0.5,1.9-0.9H21
		c0.4-0.2,0.8-0.4,1.3-0.6c0.5-0.2,0.9-0.4,1.2-0.8c0.7-0.2,1.5-0.4,2.3-0.6s1.5-0.7,2-1.2c0.3,0,0.6-0.1,0.9-0.2
		c0.2-0.1,0.5-0.2,0.7-0.4l0.7-0.4c0.2-0.2,0.5-0.3,0.8-0.4c0.2-0.2,0.3-0.4,0.5-0.6s0.3-0.4,0.6-0.5c-0.1-0.4-0.2-0.6-0.5-0.8
		c-0.3-0.2-0.5-0.4-0.8-0.6h-0.7c-0.6-0.4-1.2-0.6-1.8-0.8c-0.7-0.2-1.3-0.4-1.9-0.6c0,0-0.1,0-0.2,0c-0.2,0-0.2,0.1-0.3,0.2
		c0,0.1-0.1,0.2-0.3,0.1c-0.2-0.1-0.4-0.2-0.6-0.2c-0.2,0-0.5,0-0.7,0c-0.3,0-0.6,0-0.9,0c-0.3,0-0.6,0-0.9,0c-0.2,0-0.3,0-0.5,0
		c-0.2,0-0.3-0.1-0.5-0.2h-0.4c-0.5,0-0.9,0-1.4,0c-0.5,0-0.9,0-1.3,0c-0.2,0-0.5,0-0.7,0c-0.2,0-0.4,0-0.7-0.1
		c-0.5,0.2-1,0.4-1.5,0.5c-0.5,0.1-1.1,0.2-1.6,0.2s-1.1,0.1-1.7,0.1s-1.1,0.1-1.6,0.2c-0.1,0-0.3,0-0.4,0c-0.1,0-0.2,0-0.3,0
		c-0.1,0-0.2,0-0.3,0s-0.2,0-0.3,0c-0.3-0.3-0.6-0.5-1-0.7s-0.8-0.2-1.2-0.3c-0.3-0.4-0.5-0.8-0.7-1.1s-0.2-0.8-0.3-1.3h0.1
		c0.2,0,0.2-0.1,0.2-0.2s0-0.3,0.1-0.4c0.1-0.1,0.3-0.2,0.4-0.3c0.2-0.1,0.4-0.1,0.5-0.2c0.2-0.1,0.3-0.1,0.5-0.2s0.3-0.3,0.4-0.5
		h0.4c0.1,0,0.2,0,0.3,0c0.1,0,0.2,0,0.2,0.1c0.1-0.1,0.2-0.2,0.3-0.2c0.1-0.1,0.3-0.1,0.4-0.2c0.1-0.1,0.2-0.1,0.3-0.2
		c0.1-0.1,0.1-0.2,0.2-0.4c0,0.1,0.1,0.1,0.2,0.1s0.2,0,0.2-0.1c0.1,0,0.2-0.1,0.3,0c0.1-0.3,0.3-0.5,0.6-0.5c0.3,0,0.5-0.1,0.7-0.2
		c0.2-0.1,0.3-0.2,0.4-0.3c0.1-0.1,0.3-0.2,0.4-0.3l2-1.5l3-2.3c1-0.8,2.1-1.5,3.1-2.1c0-0.1,0.1-0.2,0.2-0.3
		c0.1-0.1,0.2-0.1,0.3-0.2c0.1-0.1,0.2-0.2,0.2-0.2c0.1-0.1,0.1-0.2,0-0.4c0.3-0.1,0.5-0.2,0.7-0.4c0.2-0.2,0.3-0.4,0.4-0.6
		c0.1-0.2,0.3-0.4,0.4-0.6s0.3-0.4,0.6-0.5c0-0.1,0-0.2,0-0.3c0-0.2,0-0.4,0-0.5c0-0.2,0.1-0.3,0.2-0.5c-0.2-0.5-0.5-0.8-1-1
		c-0.5-0.2-0.9-0.4-1.4-0.5h-0.1c-0.1,0-0.2,0-0.2,0.1c0,0.1-0.1,0.2-0.2,0.2c-0.4-0.1-0.7-0.1-1.2-0.1s-0.9,0-1.3,0.1
		c-0.4,0.1-0.9,0.1-1.3,0c-0.1,0.1-0.1,0.2-0.2,0.3c-0.1,0.1-0.2,0.2-0.3,0.2c-0.5,0-0.9,0.1-1.4,0.2l-1.4,0.3l-0.8,0.2
		c-0.1,0-0.2,0.1-0.2,0.2c0,0.1-0.1,0.2-0.1,0.4c-0.1,0-0.2-0.1-0.2-0.2S13,13,12.9,13c-0.5,0.3-1.1,0.6-1.6,0.8
		c-0.6,0.2-1.1,0.5-1.6,0.9c-0.2-0.2-0.4-0.3-0.7-0.3c-0.2,0-0.5,0.1-0.8,0.2c-0.3,0.2-0.5,0.4-0.5,0.6c-0.2,0-0.4-0.1-0.5-0.1
		c-0.2,0-0.4,0.1-0.6,0.2s-0.3,0.3-0.5,0.4c-0.2,0.2-0.3,0.3-0.5,0.5c-0.2,0.2-0.4,0.2-0.7,0.3c0,0.1,0,0.2,0,0.3c0,0.1,0,0.2,0,0.4
		c0,1-0.1,2-0.2,3c-0.1,1-0.2,2-0.2,3c0,0.2,0,0.4,0,0.6c0,0.2,0,0.4,0,0.7c0,0.1,0,0.2-0.1,0.4c-0.1,0.2-0.2,0.4-0.2,0.5
		c0.1,0.2,0.1,0.5,0.1,0.7c0,0.2,0,0.5,0.1,0.7c-0.2,0.2-0.3,0.4-0.3,0.7c0,0.1,0,0.3,0,0.4c0,0.1,0,0.3,0,0.4v0.4
		c-0.1,0.4-0.1,0.9-0.1,1.3c0,0.5,0,0.9,0,1.3c0,0.2,0,0.5,0,1c0,0.5,0,1,0.1,1.6s0.1,1.2,0.2,1.8c0.1,0.6,0.2,1.2,0.3,1.7
		c0.1,0.5,0.3,0.9,0.5,1.3c0.2,0.3,0.5,0.5,0.8,0.5c0.1,0,0.1,0,0.2,0s0.1-0.1,0.1-0.2s0-0.2,0-0.2s0-0.1,0-0.2l0-0.1
		c0.2,0.1,0.4,0.1,0.6,0.2c0.2,0,0.4,0,0.6,0.1s0.4,0.1,0.6,0.1c0.2,0.1,0.4,0.2,0.5,0.3c-0.1,0.2-0.1,0.4-0.1,0.6
		c0,0.3,0.1,0.5,0.2,0.7c0.1,0.2,0.2,0.5,0.3,0.7c-0.4,0.1-0.8,0.3-1.1,0.4c-0.3,0.2-0.7,0.3-1,0.5c-0.3,0.1-0.7,0.3-1.1,0.4
		c-0.4,0.1-0.8,0.2-1.3,0.2c-0.3-0.2-0.6-0.4-0.8-0.5c-0.2-0.2-0.5-0.3-0.9-0.3c-0.6-0.8-1-1.6-1.4-2.6c-0.4-1-0.7-2-0.9-3
		s-0.4-2.1-0.4-3.1s-0.1-2-0.1-3c0-1,0-2,0.1-3c0.1-1,0.2-2,0.3-3c0-0.3,0.1-0.6,0.1-0.9c0-0.3,0.1-0.6,0.1-0.9
		c0-0.1,0.1-0.2,0.1-0.4s0-0.3,0-0.4c0-0.4,0-0.7,0-1.1s0-0.7,0-1.1c0-0.6,0-1.1,0.1-1.7c0-0.1,0.1-0.3,0.1-0.4
		c0.1-0.2,0.1-0.3,0.1-0.5c0-0.2,0-0.3-0.1-0.4c-0.1-0.1-0.2-0.2-0.2-0.3C0.9,16,1,15.8,1,15.6c0-0.2,0.1-0.4,0.1-0.6
		c0-0.4-0.1-0.8-0.2-1.1c0.1-0.6,0.3-1.1,0.5-1.7s0.6-1,1.2-1.3c0.4,0,0.9,0.1,1.3,0.1s0.8,0.3,1.2,0.6c0.2-0.1,0.3-0.1,0.5-0.2
		l0.6-0.1c0.2,0,0.4-0.1,0.6-0.1c0.2-0.1,0.3-0.2,0.5-0.3c0.4-0.1,0.9-0.2,1.4-0.4c0.5-0.2,0.9-0.4,1.3-0.6h0.7
		c0.2-0.1,0.3-0.2,0.5-0.2l0.6-0.2c0.2-0.1,0.4-0.1,0.6-0.2s0.3-0.2,0.4-0.3h0.1c0.5,0,1-0.1,1.5-0.3c0.5-0.2,1-0.4,1.4-0.6
		c0.1,0,0.3-0.1,0.5-0.2c0.2-0.1,0.4-0.2,0.5-0.2c0.3,0,0.6-0.1,0.9-0.1c0.3,0,0.6,0,0.9-0.1c0.7-0.1,1.4-0.2,2.1-0.4
		c0.7-0.1,1.4-0.2,2.1-0.2c0.2,0,0.5,0,0.7,0c0.2,0,0.4,0,0.7,0c0,0.1,0.1,0.2,0.2,0.2c0.1,0.1,0.2,0.1,0.2,0.1
		c0.1,0,0.1,0.1,0.2,0.2c0.1,0.1,0.1,0.2,0.1,0.3c0,0,0.1,0.1,0.1,0.1c0.1,0,0.1,0,0.2-0.1c0.1-0.1,0.1-0.1,0.2-0.1h0.2
		c0.3,0.3,0.6,0.6,0.8,0.9c0.3,0.3,0.6,0.5,1,0.7c0.2,0.7,0.4,1.3,0.6,2c0.2,0.6,0.4,1.3,0.4,2.1c0,0.4-0.1,0.9-0.2,1.3
		c-0.3,0.2-0.5,0.4-0.7,0.7s-0.3,0.7-0.4,1c-0.6,0.3-1.1,0.7-1.6,1.2s-0.8,1-1.3,1.5h-0.5c-0.1,0-0.2,0-0.2,0.1l-0.3,0.3
		c-0.2,0.2-0.4,0.4-0.6,0.5s-0.4,0.4-0.5,0.7c-0.7,0.4-1.3,0.8-2,1.3c-0.6,0.5-1.2,0.9-1.8,1.5c-0.2,0.2-0.5,0.4-0.7,0.7
		c-0.2,0.3-0.5,0.5-0.7,0.6c-0.1,0.1-0.3,0.2-0.4,0.3c-0.2,0.1-0.3,0.2-0.4,0.3c-0.3,0.2-0.6,0.4-0.8,0.7c-0.2,0.2-0.5,0.4-0.8,0.6
		c1,0,2-0.1,3-0.1s2,0,3,0c0.5,0,1,0,1.5,0c0.5,0,1,0,1.5,0c0.1,0,0.2,0,0.2,0c0.1,0,0.1,0.1,0.2,0.1c0.4,0.1,0.7,0.1,1,0.2
		c1.1,0.2,2.1,0.4,3.2,0.5c1.1,0.2,2.1,0.4,3.1,0.8c0.3,0.1,0.5,0.2,0.6,0.4c0.1,0.1,0.4,0.2,0.8,0.1c0.3,0.3,0.6,0.6,1,0.7
		c0.4,0.2,0.7,0.3,1.1,0.5c0.3,0.4,0.6,0.9,0.8,1.3S36.2,31.7,36.2,32.3z"/>
	<path d="M45.2,33.4c-0.1,0.2-0.2,0.3-0.4,0.5c-0.2,0.1-0.3,0.3-0.4,0.4c-0.2,0.1-0.3,0.1-0.5,0.1c-0.2,0-0.4,0-0.5,0
		c-0.2,0-0.3,0-0.5,0c-0.1,0-0.3,0.1-0.3,0.1c-0.2,0-0.3-0.1-0.4-0.2c-0.1-0.1-0.2-0.2-0.5-0.2c-0.1,0-0.2,0-0.3,0
		c-0.3-0.4-0.6-0.8-0.9-1.2c-0.3-0.4-0.5-0.8-0.8-1.2c0-0.8-0.1-1.6-0.2-2.5c0-0.2-0.1-0.4-0.1-0.6s-0.1-0.4-0.1-0.6
		c0-0.2,0-0.4,0-0.6s0.1-0.4,0.1-0.6c0.1-0.6,0.2-1.3,0.3-1.9c0.1-0.6,0.2-1.2,0.3-1.9c0.1-0.6,0.1-1.2,0.1-1.8S40,20,39.8,19.5
		l0-0.2c0-0.2,0.1-0.3,0.1-0.4s0.1-0.3,0.1-0.4c0-0.2,0-0.4-0.2-0.5c0.1-0.2,0.2-0.3,0.3-0.3c0.2-0.1,0.2-0.2,0.3-0.4
		c0-0.1,0-0.2,0-0.3c0.2-0.1,0.4-0.1,0.5-0.2c0.2-0.1,0.4-0.1,0.5,0c0.3,0,0.5,0.1,0.8,0.3s0.4,0.3,0.6,0.5c0.4,1.1,0.5,2.2,0.4,3.4
		s-0.2,2.4-0.3,3.6c-0.2,1.2-0.3,2.4-0.3,3.5c0,1.1,0.1,2.2,0.5,3.2l0.1,0c0.1,0,0.2,0,0.3-0.1c0.1-0.1,0.2-0.1,0.3-0.1
		c0.1,0,0.1,0.1,0.2,0.1c0.1,0.4,0.2,0.9,0.4,1.3C44.7,32.6,44.9,33,45.2,33.4z"/>
	<path d="M76.8,16.6c-0.1,0.3-0.2,0.6-0.4,0.8l-0.6,0.7c-0.2,0.2-0.3,0.5-0.4,0.7c-0.1,0.3-0.2,0.5-0.1,0.9c0,0-0.1,0-0.2,0
		s-0.1,0-0.2,0c-0.4,0-0.6,0.1-0.8,0.2s-0.4,0.3-0.7,0.4c0-0.1-0.1-0.3-0.2-0.4s-0.2-0.2-0.3-0.2c-0.5,0.1-1.1,0.2-1.6,0.2
		c-0.5,0.1-1.1,0.1-1.6,0.2c-0.2,0-0.5,0.1-0.7,0.2c-0.2,0.1-0.5,0.1-0.8,0.2c-0.1,0-0.3,0.1-0.4,0c-0.2,0-0.3,0-0.5,0
		c-0.5,0-1.1,0.1-1.7,0.1c-0.6,0.1-1.2,0.2-1.7,0.5c-0.2,0-0.5-0.1-0.7-0.1s-0.5,0-0.7,0c-0.5,0-1.1,0-1.7,0.1s-1.2,0.3-1.7,0.6
		c-0.1,0-0.2-0.1-0.3-0.1c-0.1,0-0.3,0-0.4,0c0,0-0.1,0-0.1,0s-0.1,0-0.1,0c0,0.2,0,0.4,0.1,0.6c0.1,0.2,0.2,0.3,0.4,0.4
		c-0.1,0.2-0.1,0.5-0.1,0.8c0,0.4,0,0.7,0.1,1.1s0.1,0.7,0.1,1.1c0,0.4-0.1,0.7-0.2,1c0.2,0.7,0.3,1.4,0.3,2.1c0,0.3,0,0.5,0,0.8
		s0,0.5,0,0.8c0,0.2,0.1,0.4,0.3,0.6c0.2,0.1,0.3,0.3,0.3,0.6c0,0.1,0,0.2-0.1,0.3c0.3-0.1,0.6-0.2,0.9-0.3s0.6-0.2,0.9-0.2
		c0.2,0,0.3,0,0.5,0.1c0.2,0.1,0.3,0.2,0.4,0.3c0,0.1,0,0.2,0,0.4c0,0.1,0,0.3,0,0.4c0,0.2,0,0.5,0,0.7s0,0.4,0,0.7
		c-0.2,0.3-0.4,0.6-0.6,0.8s-0.4,0.6-0.5,0.9c-0.3,0-0.6,0.1-0.9,0.2c-0.3,0.1-0.5,0.3-0.7,0.5c-0.2,0.2-0.4,0.3-0.7,0.5
		c-0.2,0.1-0.5,0.2-0.7,0.2c-0.3,0-0.6,0-0.7-0.1c-0.1-0.1-0.2-0.2-0.3-0.3c-0.1-0.1-0.1-0.2-0.2-0.3c-0.1-0.1-0.2-0.1-0.3-0.1
		c0-0.3-0.1-0.6-0.3-0.8c-0.1-0.3-0.3-0.5-0.4-0.7c-0.1-0.2-0.3-0.5-0.4-0.7c-0.1-0.3-0.2-0.5-0.3-0.8c-0.1-0.6-0.2-1.2-0.2-1.8
		c0-0.6-0.1-1.2-0.3-1.8c0-0.3,0.1-0.6,0.1-0.9c0-0.3,0-0.6,0-0.9c0-0.6,0-1.2,0-1.8c0-0.6-0.1-1.2-0.1-1.9
		c-0.2-0.2-0.2-0.4-0.3-0.7c0-0.3-0.1-0.5-0.1-0.7c-0.1-0.1-0.1-0.1-0.2-0.2c-0.1-0.1-0.1-0.2-0.1-0.3c-0.2,0-0.3-0.1-0.4-0.1
		c-0.3,0-0.6,0.1-0.8,0.2c-0.2,0.1-0.4,0.2-0.6,0.2c-0.2,0-0.3,0-0.5-0.1c-0.2,0-0.3-0.1-0.5-0.1c-0.1,0-0.2,0-0.2,0.1
		c0,0.1-0.1,0.1-0.1,0.1c-0.1,0-0.2,0.1-0.5,0.1c-0.2,0-0.5,0.1-0.8,0.1c-0.3,0-0.6,0.1-0.9,0.1s-0.5,0-0.5,0
		c-0.4,0-0.6-0.1-0.8-0.2c-0.2-0.1-0.4-0.3-0.7-0.5c0-0.1,0.1-0.2,0.1-0.3c0-0.2-0.1-0.4-0.2-0.5c-0.1-0.1-0.2-0.3-0.2-0.4
		c0-0.2,0.1-0.4,0.3-0.6c0.2-0.1,0.3-0.3,0.3-0.6c0.5-0.2,1-0.4,1.6-0.5c0.5-0.1,1.1-0.2,1.6-0.3c0.6-0.1,1.1-0.1,1.6-0.2
		s1.1-0.2,1.6-0.4c0.2,0,0.3,0,0.4,0c0.1,0,0.3,0,0.4,0c0.7,0,1.3-0.1,2-0.2c0.7-0.1,1.3-0.2,2-0.2c0.2,0,0.4,0,0.5,0
		s0.4,0.1,0.5,0.1c0.9-0.1,1.8-0.3,2.6-0.4c0.9-0.2,1.8-0.3,2.7-0.4c0.4,0,0.9-0.1,1.3-0.1c0.4,0,0.9-0.1,1.3-0.1
		c0.2,0,0.3-0.1,0.3-0.1c0.1-0.1,0.1-0.2,0.1-0.3c0.2,0.1,0.4,0.1,0.7,0.1c0.4,0,0.7-0.1,1.1-0.2c0.4-0.1,0.7-0.2,1.1-0.2
		c0.1,0,0.2,0,0.2,0c0.1,0,0.1,0,0.2,0c0.2,0,0.2-0.1,0.2-0.2s0.1-0.2,0.3-0.3c0.2,0,0.4-0.1,0.7-0.1c0.3,0,0.6,0,0.9-0.1
		c0.3,0,0.6-0.1,0.9-0.1c0.3-0.1,0.5-0.1,0.6-0.2l0.2-0.4c0.4,0,0.7,0.2,0.9,0.5c0.2,0.3,0.3,0.7,0.3,1c0.1,0.1,0.2,0.1,0.4,0.1
		C76.4,16.6,76.6,16.6,76.8,16.6L76.8,16.6z"/>
	<path d="M93.1,16.9V17c-0.2,0-0.2,0.2-0.2,0.3c-0.2,0.1-0.5,0.2-0.8,0.2c-0.3,0.1-0.5,0.1-0.8,0.2c-0.2,0-0.5,0-0.7,0
		c-0.3,0-0.5,0-0.7,0c-0.7,0-1.3,0-2,0.1c-0.7,0-1.3,0-2,0c-0.3,0.2-0.6,0.3-1,0.4c-0.4,0.1-0.7,0.1-1,0.1c-0.3,0-0.5,0-0.7-0.1
		c-0.5,0.3-1.1,0.5-1.7,0.7c-0.6,0.2-1.3,0.3-1.9,0.5c-0.6,0.2-1.3,0.4-1.8,0.6c-0.6,0.2-1.1,0.5-1.5,0.9c0,0.3-0.1,0.6-0.1,0.9
		s0,0.6,0,0.9c0,0.3,0,0.6,0,0.9s0.1,0.5,0.2,0.8c0.1,0,0.2,0.1,0.4,0.1c0.1,0,0.3,0,0.4,0s0.2,0,0.3,0c0.1,0,0.2-0.1,0.2-0.2
		c0.3,0,0.7-0.1,1,0c0.3,0,0.7,0,1,0c0.3,0,0.7,0,1,0c0.3,0,0.6-0.1,0.9-0.2c0.4-0.1,0.7-0.1,1-0.2c0.3,0,0.7,0,1-0.1
		c0.3,0,0.7-0.1,1-0.1c0.4-0.1,0.7-0.2,1.1-0.3c0.3,0.1,0.6,0.2,0.9,0.2c0.3,0,0.6,0,0.9,0.1c0.2,0.1,0.3,0.2,0.4,0.4
		c0.1,0.1,0.1,0.3,0.1,0.5c0,0.3-0.1,0.6-0.3,0.9c-0.2,0.3-0.4,0.6-0.5,0.9h-0.4c-0.5,0-1,0.1-1.5,0.2s-1,0.3-1.5,0.5
		c-0.5,0.2-1,0.4-1.5,0.5c-0.5,0.1-1,0.2-1.5,0.2c-0.1,0-0.1,0-0.1,0.1s0,0.2-0.1,0.2c-0.1,0-0.3,0-0.5,0c-0.5,0-1,0.1-1.5,0.2
		s-0.9,0.2-1.4,0.2c-0.1,0-0.3,0-0.4,0c-0.1,0-0.3,0-0.4,0c-0.1,0.2-0.3,0.3-0.4,0.3c-0.2,0.1-0.3,0.1-0.5,0.3
		c-0.1,0.2-0.1,0.4-0.1,0.7s0,0.6,0,0.9s0,0.6-0.1,0.8s-0.1,0.5-0.3,0.6c0,0.1,0.1,0.1,0.3,0.1c0.2,0,0.2,0,0.2,0.2
		c0,0.2,0,0.4-0.1,0.6s-0.1,0.4-0.1,0.7c0,0.4,0,0.9,0.1,1.4c0.1,0.5,0.3,1,0.5,1.4c0.2,0.4,0.5,0.8,0.8,1c0.4,0.3,0.8,0.4,1.3,0.4
		c0.4,0,0.7-0.1,1-0.2c0.3-0.1,0.6-0.4,0.8-0.7l0.2,0c0.1,0,0.2,0,0.2,0s0.2,0,0.2,0c0.1,0,0.3-0.1,0.5-0.2c0.2-0.2,0.4-0.4,0.7-0.6
		c0.3-0.2,0.5-0.4,0.8-0.6c0.3-0.2,0.5-0.4,0.8-0.4c0.2-0.3,0.3-0.6,0.4-0.9c0.1-0.3,0.4-0.6,0.6-0.7v-1c0.2-0.2,0.5-0.5,0.7-0.7
		c0.3-0.2,0.4-0.5,0.6-0.8c0.1,0,0.2,0.1,0.3,0.1s0.2,0,0.3,0s0.2,0,0.3,0s0.2-0.1,0.3-0.1c0.2,0.2,0.3,0.5,0.4,0.8
		c0.1,0.3,0.2,0.6,0.4,0.8c-0.2,0.4-0.4,0.9-0.7,1.4c-0.3,0.6-0.6,1.1-0.9,1.7s-0.6,1.1-1,1.6c-0.3,0.5-0.7,0.9-1,1.1
		c-0.1,0.1-0.2,0.1-0.4,0.2c-0.2,0.2-0.5,0.3-0.7,0.5c-0.2,0.2-0.4,0.4-0.6,0.6c-0.6,0.2-1.3,0.5-1.8,0.8s-1.2,0.7-1.7,1
		c-0.3-0.1-0.6-0.1-0.9-0.1c-0.3,0-0.5,0-0.8,0c-0.3,0-0.6,0-0.9,0c-0.1-0.1-0.2-0.2-0.4-0.2c-0.2,0-0.2-0.1-0.2-0.3
		c-0.7,0-1.4-0.2-1.8-0.6s-0.9-0.8-1.2-1.3c-0.3-0.5-0.6-1.1-0.8-1.7c-0.2-0.6-0.4-1.2-0.6-1.8v-0.1c0-0.1,0-0.2,0.1-0.2
		s0.1-0.1,0.1-0.2c0,0,0-0.1,0-0.1c-0.1-0.2-0.1-0.5-0.2-0.6c0-0.2-0.1-0.4-0.1-0.6c0-0.4,0-0.7,0.1-1c0-0.3,0.1-0.7,0.1-1
		c0-0.4,0-0.7-0.1-0.9c0.1-0.1,0.2-0.3,0.2-0.4s0.1-0.4,0.1-0.6c0-0.2,0-0.4,0-0.6c0-0.2,0-0.4,0.1-0.5c-0.1-0.2-0.2-0.5-0.2-0.6
		c-0.1-0.2-0.1-0.4-0.1-0.7v-0.2c0.2-0.4,0.4-0.8,0.6-1.2c0.2-0.4,0.3-0.8,0.5-1.2v-0.1c0-0.6,0-1.3-0.1-1.9c0-0.6-0.1-1.3-0.1-1.9
		v-0.6c0-0.2,0-0.4,0-0.6c0.2-0.1,0.3-0.2,0.4-0.4s0.2-0.3,0.4-0.4h1.1l0.2-0.3c0.1-0.1,0.1-0.2,0.1-0.4c0.2-0.1,0.5-0.2,0.7-0.3
		c0.2-0.1,0.4-0.2,0.6-0.4c0.3-0.2,0.6-0.3,0.8-0.5c0.3-0.1,0.5-0.3,0.8-0.4c0.3-0.1,0.5-0.2,0.8-0.2c0.3-0.1,0.6-0.1,1-0.2
		c0.2,0,0.3,0,0.3-0.1s0.1-0.1,0.2-0.2c0.3,0,0.5,0.1,0.8,0.1c0.3,0,0.5,0,0.8,0c0.5,0,1-0.1,1.5-0.3c0.7,0,1.3,0,2,0
		c0.7,0,1.3,0,2,0c0.6,0,1.1,0,1.7,0.1c0.6,0,1.1,0.1,1.7,0.2c0.2-0.1,0.4-0.1,0.7-0.1c0.3,0,0.5,0,0.8,0.1c0.3,0.1,0.5,0.1,0.8,0
		c0,0.2,0.1,0.4,0.2,0.6C93,16.5,93.1,16.6,93.1,16.9z"/>
	<path d="M140.5,36c0,0.2-0.1,0.3-0.2,0.4c-0.1,0.1-0.1,0.2-0.1,0.5c-0.2,0-0.3,0.1-0.5,0.3c-0.1,0.2-0.3,0.2-0.5,0.2
		c-0.1,0-0.2-0.1-0.3-0.2c0,0.2-0.1,0.3-0.2,0.3c-0.1,0.1-0.2,0.1-0.4,0.2c-0.1,0-0.3,0.1-0.4,0.2s-0.2,0.2-0.3,0.3h-0.2
		c-0.3,0-0.5,0.1-0.6,0.3c-0.1,0.2-0.3,0.3-0.5,0.3c-0.1,0-0.1,0-0.1,0c-0.1,0-0.2,0.1-0.1,0.2c0,0.1,0,0.2-0.1,0.2H136
		c-0.6,0-1.2,0.1-1.8,0.4c-0.6,0.2-1.2,0.5-1.8,0.8s-1.2,0.6-1.9,0.9s-1.3,0.5-1.9,0.5c-0.1,0.1-0.3,0.2-0.5,0.3
		c-0.2,0.1-0.4,0.1-0.6,0.2c-0.2,0-0.4,0.1-0.6,0.1c-0.2,0.1-0.4,0.1-0.5,0.3c-0.6,0-1.1,0.1-1.7,0.3c-0.6,0.2-1.1,0.3-1.6,0.4
		c-0.5,0.1-1.1,0.3-1.7,0.4c-0.6,0.1-1.1,0.1-1.7,0.1c-0.2,0.1-0.4,0.2-0.6,0.3c-0.2,0.1-0.4,0.2-0.6,0.3c-0.9-0.1-1.8-0.2-2.7-0.3
		c-0.9-0.1-1.8-0.2-2.6-0.5c0-0.1,0-0.1-0.1-0.1s-0.1,0-0.1,0s-0.1,0-0.1-0.1c0,0,0-0.1,0-0.2c-0.2,0.1-0.4,0.1-0.5,0.1
		c-0.2,0-0.4-0.1-0.6-0.2c-0.2-0.1-0.4-0.2-0.7-0.4c-0.2-0.1-0.5-0.3-0.7-0.4c-0.2-0.1-0.5-0.2-0.8-0.2c-0.2-0.2-0.3-0.4-0.5-0.5
		c-0.1-0.2-0.2-0.4-0.3-0.7c-0.1,0-0.2,0-0.3,0c-0.1,0-0.2,0-0.2,0c-0.1,0-0.2,0-0.2-0.1c-0.5-0.3-0.8-0.7-1-1.1
		c-0.2-0.4-0.4-0.8-0.7-1.3c-0.1-0.2-0.1-0.3-0.2-0.4s-0.2-0.2-0.2-0.3c-0.1-0.2-0.1-0.5-0.2-0.7s0-0.5,0-0.7c0-0.2,0-0.5-0.1-0.7
		s-0.2-0.4-0.3-0.6c0-0.8,0.1-1.7,0.3-2.5s0.3-1.7,0.5-2.5c0.1-0.4,0.2-0.7,0.3-1.1c0.1-0.4,0.2-0.7,0.3-1.1c0-0.1,0.1-0.2,0.1-0.3
		s0.1-0.1,0.1-0.1l0.1-0.1c0,0,0.1-0.1,0.1-0.2l0.3-1.1c0.2-0.7,0.4-1.4,0.7-2.1c0.3-0.7,0.7-1.3,1.2-1.9c0-0.6,0.2-1.1,0.4-1.6
		c0.2-0.5,0.4-1,0.7-1.5c0.3-0.5,0.5-0.9,0.8-1.4c0.3-0.5,0.5-1,0.6-1.5l0-0.1c0-0.1,0-0.1,0.1-0.1c0.1,0,0.2,0,0.2,0
		c0-0.4,0.1-0.7,0.2-0.9c0.1-0.3,0.3-0.5,0.5-0.7c0.2-0.2,0.3-0.5,0.5-0.7c0.1-0.3,0.2-0.6,0.2-0.9c0.4-0.2,0.8-0.5,1.1-0.9
		c0.3-0.4,0.6-0.7,0.9-1.1c0.3-0.4,0.6-0.8,0.9-1.1c0.3-0.4,0.7-0.7,1.1-0.9c0.1-0.1,0.1-0.3,0.1-0.6c0.7-0.5,1.4-1,2.1-1.4
		s1.4-0.9,2.1-1.4h1.2c0.3-0.2,0.6-0.3,1-0.3c0.3,0,0.5,0.1,0.8,0.2c0.3,0.1,0.5,0.2,0.7,0.4c0.2,0.1,0.5,0.3,0.7,0.4
		c0.2,0.1,0.5,0.2,0.7,0.3c0.2,0.3,0.4,0.7,0.5,1.1s0.2,0.8,0.3,1.2c-0.2,0.6-0.3,1.2-0.4,1.8c0,0.6-0.1,1.3-0.2,1.9
		c-0.2,0.2-0.3,0.4-0.4,0.6s-0.2,0.4-0.3,0.6s-0.2,0.4-0.4,0.6c-0.1,0.2-0.3,0.3-0.5,0.4c-0.2,0.6-0.5,1.1-0.8,1.5s-0.7,0.8-1.1,1.3
		c-0.3,0.2-0.7,0.3-1.1,0.3c-0.3,0-0.6-0.1-0.8-0.2c-0.2-0.1-0.5-0.3-0.7-0.6c-0.2-0.2-0.4-0.5-0.5-0.8s-0.2-0.5-0.3-0.8
		c0.2-0.5,0.4-0.9,0.7-1.2c0.3-0.3,0.7-0.7,1-1c0.4-0.3,0.7-0.7,0.9-1.1c0.3-0.4,0.4-0.8,0.4-1.4c0,0,0-0.1,0-0.1c0,0,0-0.1,0-0.1
		c0-0.1,0-0.2,0.1-0.2s0.1-0.1,0.2-0.2l0.2-0.2c0.1-0.1,0.1-0.1,0.1-0.2c0-0.1,0-0.2-0.1-0.3c-0.8,0.1-1.5,0.2-1.9,0.4
		c-0.4,0.2-0.8,0.5-1,0.7c-0.2,0.3-0.5,0.5-0.6,0.8c-0.2,0.3-0.5,0.4-0.8,0.5c-0.1,0.2-0.2,0.3-0.3,0.4c-0.1,0.1-0.2,0.2-0.4,0.4
		s-0.2,0.3-0.3,0.4c-0.1,0.2-0.2,0.3-0.2,0.6h-0.6c-0.1,0.2-0.2,0.4-0.4,0.6c-0.2,0.2-0.3,0.4-0.5,0.5c-0.2,0.2-0.3,0.4-0.4,0.6
		c-0.1,0.2-0.2,0.4-0.1,0.7c-0.2,0.1-0.4,0.2-0.5,0.4c-0.1,0.2-0.3,0.4-0.5,0.5v0.2c0,0.2,0,0.3-0.1,0.5s-0.1,0.3,0,0.5
		c-0.3,0.2-0.5,0.5-0.6,0.9c-0.1,0.4-0.2,0.7-0.4,1c-0.3,0.2-0.5,0.4-0.6,0.6c-0.1,0.3-0.2,0.6-0.2,0.9c-0.3,0.3-0.6,0.7-0.9,1.2
		c-0.3,0.4-0.5,0.9-0.7,1.4c-0.2,0.5-0.4,0.9-0.6,1.4c-0.2,0.5-0.4,0.9-0.6,1.4v1c-0.3,0.4-0.5,0.8-0.6,1.2s-0.3,0.9-0.5,1.3
		c0,0.2-0.1,0.5,0,0.7c0,0.2,0,0.5,0,0.7c0,0.3,0,0.5-0.1,0.8s-0.1,0.6-0.2,0.8c0.1,0.3,0.2,0.7,0.2,1.2c0,0.5,0.1,0.9,0.2,1.4
		c0.1,0.5,0.3,0.9,0.5,1.2c0.2,0.4,0.5,0.6,0.9,0.7c0.1,0.5,0.3,0.9,0.6,1.1c0.3,0.3,0.7,0.5,1.2,0.6c0.4,0.2,0.9,0.3,1.4,0.4
		c0.5,0.1,0.9,0.3,1.2,0.5c0.1-0.1,0.3-0.1,0.5-0.1c0.2,0,0.3,0,0.5,0.1c0.1,0,0.3,0.1,0.5,0.1c0.3,0,0.7-0.1,1.1-0.1s0.9,0,1.4,0
		c0.5,0,0.9-0.1,1.3-0.2s0.7-0.3,1-0.5c0.2,0,0.3,0,0.3,0.1c0.1,0.1,0.2,0.1,0.3,0.1s0.4,0,0.7-0.1c0.3-0.1,0.6-0.2,1-0.3
		c0.3-0.1,0.6-0.2,0.9-0.3c0.3-0.1,0.5-0.2,0.6-0.3c0.1,0,0.1,0,0.2,0h0.2c0.3,0,0.6-0.1,0.9-0.2c0.3-0.1,0.6-0.1,0.9-0.1
		c1-0.5,2-0.9,3.1-1.3c1-0.4,2.1-0.7,3.2-1c0.1-0.2,0.3-0.3,0.5-0.4c0.2-0.1,0.4-0.2,0.6-0.2c0.2-0.1,0.4-0.1,0.7-0.1
		c0.2,0,0.4-0.1,0.6-0.1c0.1-0.1,0.2-0.1,0.3-0.2c0.1-0.1,0.2-0.2,0.4-0.2c0.2-0.1,0.3-0.1,0.5-0.1c0.2,0,0.4,0,0.6-0.1
		c0.2,0,0.4-0.1,0.5-0.1c0.2-0.1,0.3-0.2,0.4-0.3c0.3,0.1,0.6,0.3,0.9,0.4C140,35.4,140.3,35.6,140.5,36L140.5,36z"/>
	<path d="M153.6,29.4c0,0.2-0.1,0.4-0.3,0.5s-0.3,0.3-0.3,0.5c0,0.1,0,0.2,0.1,0.3c-0.3,0-0.5,0.1-0.6,0.3c-0.1,0.2-0.2,0.4-0.3,0.7
		h-0.4c-0.1,0-0.2,0-0.3,0.1c-0.1,0-0.1,0.1-0.2,0.2c-0.1,0.1-0.1,0.2-0.2,0.3c-0.4,0.1-0.8,0.2-1.2,0.4s-0.8,0.4-1.1,0.6
		s-0.7,0.4-1.1,0.6c-0.4,0.2-0.8,0.4-1.2,0.5c-0.2,0.3-0.5,0.6-0.9,0.8h-0.1c-0.1,0-0.2,0-0.3,0c-0.1-0.1-0.2-0.1-0.3-0.1
		c-0.1,0-0.1,0-0.1,0c-0.7,0.4-1.4,0.7-2.2,0.7c-0.2,0-0.4,0-0.6,0s-0.4,0-0.6,0c-0.1,0-0.1,0-0.1,0.1l-0.1,0.1c0,0,0,0.1-0.1,0.1
		c0,0-0.1,0.1-0.2,0.1c-0.2,0-0.5,0-0.7-0.1c-0.2-0.1-0.5-0.1-0.8,0c-0.5-0.3-0.9-0.6-1.2-0.8c-0.3-0.3-0.6-0.7-0.8-1.2
		c-0.1-0.2-0.3-0.5-0.4-0.7s-0.3-0.5-0.4-0.7c0-0.1-0.1-0.2-0.1-0.5c0-0.2-0.1-0.5-0.1-0.7s-0.1-0.5-0.1-0.8c0-0.2,0-0.4,0-0.5
		c0-0.3,0-0.5,0-0.8c0-0.3,0.1-0.5,0.1-0.8c0.1-0.8,0.2-1.7,0.3-2.5c0.1-0.8,0.2-1.7,0.5-2.5c0-0.2-0.1-0.5-0.1-0.7v-0.7
		c0-0.4-0.1-0.8-0.2-1.1c0.2-0.3,0.3-0.6,0.3-1c0-0.4-0.2-0.6-0.5-0.7v-0.1c0-0.5-0.2-0.8-0.5-1.1c0-0.8,0.2-1.4,0.6-1.7
		s0.9-0.7,1.5-1c0.1-0.1,0.1-0.2,0.1-0.3c0.2,0,0.3,0.1,0.4,0.1c0.1,0,0.3,0.1,0.4,0.1c0.2,0,0.4,0,0.6-0.1c0.1,0.3,0.2,0.4,0.5,0.5
		c0.3,0.1,0.5,0.1,0.7,0.2v0.4c0,0.7,0.2,1.3,0.5,2c-0.1,0.2-0.1,0.4-0.2,0.6c0,0.2,0,0.4,0,0.6c0,0.3,0,0.5,0,0.8s0,0.5,0,0.8
		c0,0.3,0,0.5-0.1,0.8c-0.1,0.3-0.2,0.5-0.4,0.7c0,0.3,0,0.6,0,1c0,0.4,0,0.7-0.1,1.1c0,0.4-0.1,0.7-0.2,1.1
		c-0.1,0.4-0.2,0.6-0.4,0.9c0,0.3,0,0.7,0,1c0,0.3,0,0.7,0,1c0,0.5,0,1.1,0.1,1.7s0.2,1.2,0.4,1.7c0.1,0.2,0.3,0.3,0.6,0.4
		c0.3,0.1,0.6,0.1,0.8,0.1c0.2,0,0.5,0,0.7-0.1s0.4-0.2,0.5-0.4c0.1,0,0.2,0.1,0.3,0.2c0,0.1,0.1,0.2,0.2,0.3c1.3-0.5,2.5-1,3.8-1.5
		c1.3-0.5,2.5-1,3.7-1.7c0.2,0.1,0.4,0.1,0.6,0.1c0.2,0,0.4,0,0.7-0.1c0.2,0,0.4-0.1,0.7-0.1h0.2C153.6,29.2,153.6,29.3,153.6,29.4z
		"/>
	<path d="M174,32.5c-0.1,0.3-0.2,0.6-0.4,0.8c-0.2,0.2-0.4,0.4-0.7,0.6c-0.3,0.2-0.5,0.3-0.8,0.5c-0.3,0.1-0.6,0.3-0.8,0.5h-0.4
		c-0.9,0-1.6-0.2-2.1-0.7c-0.5-0.5-0.9-1-1.1-1.7c-0.3-0.7-0.5-1.4-0.6-2.2c-0.1-0.8-0.3-1.5-0.4-2.1c-0.3,0.2-0.5,0.5-0.7,0.8
		c-0.2,0.3-0.4,0.6-0.5,0.9c-0.2,0.3-0.4,0.6-0.6,0.8c-0.2,0.2-0.5,0.4-0.9,0.5c-0.1,0.2-0.1,0.3-0.2,0.5c-0.1,0.2-0.1,0.3-0.1,0.5
		c-0.5,0.3-0.9,0.6-1.3,0.9c-0.4,0.4-0.8,0.7-1.2,1.1c-0.4,0.4-0.8,0.7-1.2,1.1c-0.4,0.3-0.9,0.6-1.4,0.8c0,0-0.1,0-0.1,0
		c-0.3,0-0.5,0.1-0.7,0.2c-0.2,0.1-0.5,0.2-0.7,0.2c-0.2,0-0.3,0-0.5-0.1c-0.1-0.1-0.3-0.1-0.4-0.2c-0.1-0.1-0.3-0.2-0.4-0.2
		s-0.3-0.1-0.5,0c-0.2-0.4-0.5-0.8-0.9-1.1c-0.4-0.3-0.6-0.7-0.7-1.2c0-0.2-0.1-0.4-0.1-0.6c0-0.2,0-0.4-0.1-0.6
		c-0.1-0.3-0.2-0.7-0.3-1c-0.1-0.3-0.2-0.7-0.3-1c0.1-0.6,0.2-1.3,0.3-2c0.1-0.7,0.2-1.4,0.4-2.1c0.1-0.7,0.3-1.4,0.6-2.1
		c0.3-0.7,0.6-1.2,1-1.7l0-0.2c0-0.4,0.1-0.7,0.2-1c0.1-0.3,0.3-0.6,0.4-0.9s0.3-0.6,0.4-0.9c0.1-0.3,0.1-0.6,0.1-1
		c0.3-0.1,0.5-0.2,0.8-0.3c0.3-0.1,0.6-0.1,0.9-0.1c0.3,0,0.6,0,0.8,0.1c0,0.2,0,0.3,0.2,0.3v0.1c0,0.5-0.1,0.9-0.2,1.4
		c-0.1,0.4-0.2,0.9-0.4,1.3c-0.2,0.4-0.3,0.9-0.4,1.3c-0.1,0.4-0.2,0.9-0.3,1.3c-0.1,0-0.1,0.1-0.2,0.1c0,0.1-0.1,0.1-0.1,0.2
		c0,0.1-0.1,0.1-0.1,0.2c0,0-0.1,0.1-0.2,0.1c-0.1,0.8-0.3,1.5-0.4,2.3s-0.2,1.5-0.2,2.3c0,0.5,0,0.9,0.1,1.4s0.3,0.9,0.5,1.4l0.1,0
		c0.2,0,0.4,0.1,0.6,0.2c0.1,0.1,0.3,0.2,0.6,0.3c0.2,0,0.3-0.1,0.5-0.2c0.2-0.1,0.2-0.2,0.2-0.4c0.3,0,0.5-0.1,0.7-0.2
		c0.2-0.1,0.4-0.3,0.5-0.4l0.5-0.5c0.2-0.2,0.4-0.3,0.6-0.3c0-0.1,0-0.2,0.1-0.3l0.2-0.2c0.1-0.1,0.1-0.1,0.1-0.2c0-0.1,0-0.2,0-0.3
		c0.3,0,0.5-0.1,0.6-0.2s0.3-0.2,0.4-0.4c0.1-0.1,0.2-0.3,0.3-0.4c0.1-0.2,0.3-0.3,0.4-0.4c0.2-0.3,0.4-0.8,0.6-1.3s0.6-1.1,0.8-1.7
		c0.3-0.6,0.5-1.2,0.7-1.7c0.2-0.5,0.3-1,0.3-1.2c0-0.1,0-0.2-0.1-0.3c-0.1-0.1-0.1-0.2,0-0.3v-0.1c0.2-0.2,0.3-0.5,0.5-0.7
		c0.1-0.3,0.3-0.5,0.5-0.8c0.2-0.2,0.3-0.5,0.5-0.7c0.2-0.2,0.5-0.4,0.8-0.5c0.4,0.1,0.7,0.2,1.1,0.2c0.4,0,0.7,0.1,1,0.3
		c0,0.6,0.1,1.2,0.2,1.9c0.1,0.7,0.2,1.3,0.5,1.9c0,0.3,0,0.6,0,0.8c0,0.3,0,0.5,0,0.8c0,0.4,0,0.9,0,1.4c0,0.5,0.1,0.9,0.2,1.3
		c-0.2,0.3-0.2,0.7-0.2,1.1c0,0.5,0.1,1,0.2,1.4c0.2,0.5,0.3,0.9,0.3,1.4c0.3,0.4,0.7,0.6,1.1,0.6c0.1,0,0.2,0,0.3,0
		c0.1,0,0.2-0.1,0.2-0.1c0.2,0.2,0.3,0.4,0.5,0.6C173.6,32.2,173.8,32.4,174,32.5z"/>
	<path d="M199.9,14.6c0,0.2,0,0.4-0.1,0.6l-0.2,0.5c-0.1,0.2-0.1,0.3-0.2,0.5c-0.1,0.2-0.1,0.4-0.1,0.6c-0.3,0.4-0.6,0.7-0.9,1
		s-0.6,0.7-0.8,1.1c-0.2,0-0.4,0-0.5,0.2c-0.1,0.1-0.2,0.3-0.3,0.5c-0.5,0.2-0.9,0.4-1.2,0.7s-0.7,0.7-0.9,1
		c-1.2,0.5-2.3,1.1-3.3,1.8s-1.9,1.5-2.8,2.5c0.4,0,0.8,0,1.2,0.1c0.4,0.1,0.8,0.2,1.2,0.3s0.8,0.2,1.1,0.3c0.4,0.1,0.8,0.1,1.2,0
		c0.3,0.3,0.6,0.5,1,0.7s0.7,0.3,1.1,0.5s0.7,0.3,1.1,0.5c0.3,0.2,0.6,0.4,0.9,0.7c0,0,0,0.1,0,0.1c0,0,0,0.1,0,0.1
		c0,0.2,0,0.3,0.1,0.5c0.1,0.2,0.1,0.3,0.1,0.5c-0.1,0.2-0.2,0.4-0.3,0.6c-0.1,0.2-0.2,0.4-0.3,0.5c-0.1,0.2-0.3,0.3-0.4,0.4
		s-0.4,0.2-0.6,0.2c-0.1,0.4-0.3,0.7-0.5,0.9c-0.2,0.2-0.5,0.4-0.8,0.6c-0.3,0.2-0.6,0.3-0.9,0.5c-0.3,0.2-0.5,0.4-0.7,0.6
		c-0.7,0.2-1.3,0.4-1.9,0.6s-1.2,0.7-1.7,1.2c-0.3,0-0.7,0.1-1,0.1s-0.7,0.1-1,0.1c-0.5,0-0.8-0.1-1.1-0.3c-0.3-0.2-0.5-0.5-0.5-1
		c0.1-0.2,0.2-0.3,0.3-0.4l0.4-0.3c0.2-0.1,0.3-0.2,0.4-0.3c0.1-0.1,0.2-0.3,0.3-0.4c0,0,0.1,0,0.2,0s0.1,0,0.2,0
		c0.3,0,0.5-0.1,0.6-0.2c0.2-0.1,0.3-0.2,0.4-0.3c0.1-0.1,0.3-0.2,0.5-0.3s0.4-0.1,0.7-0.1c0.2-0.3,0.4-0.5,0.7-0.6
		c0.3-0.1,0.6-0.3,1-0.4c0.3-0.1,0.6-0.3,0.9-0.4c0.3-0.2,0.5-0.4,0.6-0.7c-0.1-0.2-0.3-0.3-0.4-0.4c-0.2-0.1-0.4-0.2-0.6-0.2
		l-0.6-0.2c-0.2-0.1-0.4-0.1-0.5-0.2c-0.2,0.1-0.5,0.1-0.7,0.1c-0.5,0-0.9,0-1.4-0.1c-0.4-0.1-0.9-0.1-1.4-0.1
		c-0.4,0-0.8,0.1-1.1,0.2c-0.1,0-0.2-0.1-0.3-0.1c-0.1,0-0.2-0.1-0.3-0.1c-0.5,0.2-1,0.3-1.6,0.3h-2.1c-0.2,0-0.4,0-0.5,0.1
		c-0.2,0.4-0.4,0.9-0.4,1.4c0,0.4,0.1,0.7,0.2,1.1s0.2,0.7,0.3,1.1c0.4,0.4,0.8,0.9,1.2,1.4c0.4,0.5,0.6,1.1,0.6,1.8
		c0,0.2,0,0.3,0,0.4c-0.2-0.2-0.5-0.2-0.9-0.2c-0.3,0-0.6,0-0.9,0.1s-0.6,0.2-0.9,0.2c-0.2-0.1-0.5-0.2-0.8-0.3
		c-0.3-0.1-0.5-0.3-0.8-0.4c-0.2-0.4-0.4-0.7-0.5-1.1c-0.2-0.3-0.4-0.7-0.7-1v-0.1c0-0.8-0.1-1.5-0.2-2.3c-0.1-0.7-0.2-1.5-0.2-2.3
		c0-0.4,0-0.7,0-1.1c0-0.4,0.1-0.7,0.3-1c-0.1-0.5-0.1-1.1-0.1-1.7c0-1.1,0.1-2.3,0.2-3.4c0.1-1.1,0.2-2.3,0.2-3.5
		c0-0.2,0-0.5,0-0.7c0-0.2,0-0.5,0-0.7h-0.1c-0.3,0-0.6,0-0.8,0.1c-0.3,0.1-0.5,0.2-0.8,0.2c-0.3,0.1-0.5,0.2-0.8,0.2
		c-0.3,0.1-0.6,0.1-0.9,0.1c-0.2,0.1-0.3,0.2-0.4,0.3c-0.1,0.1-0.2,0.2-0.3,0.2c-0.1,0.1-0.2,0.1-0.4,0.2c-0.1,0-0.3,0.1-0.5,0
		c-0.2,0.2-0.4,0.3-0.6,0.3c-0.1,0.1-0.3,0.2-0.6,0.2c-0.1,0-0.2,0.1-0.3,0.2l-0.3,0.2c-0.1,0.1-0.2,0.1-0.3,0.2
		c-0.1,0.1-0.3,0.1-0.4,0.1c-0.2,0-0.3,0-0.3,0c-0.1-0.1-0.2-0.2-0.3-0.4c-0.1-0.2-0.2-0.3-0.3-0.4c-0.1-0.1-0.2-0.3-0.3-0.4
		c-0.1-0.1-0.3-0.2-0.4-0.3c0.1-0.1,0.1-0.2,0.1-0.3c0-0.1,0-0.2,0-0.3c0-0.1,0-0.1,0-0.1c0.1-0.4,0.3-0.7,0.6-0.9
		c0.3-0.2,0.6-0.4,1-0.6c0.4-0.1,0.7-0.3,1.1-0.4c0.4-0.1,0.7-0.2,1-0.4c0.9,0,1.6-0.1,2.3-0.2c0.7-0.2,1.4-0.5,2.2-0.8
		c0.1,0.1,0.3,0.1,0.4,0.1c0.1,0,0.2,0,0.3,0l0.3-0.1c0.3-0.2,0.6-0.4,0.9-0.4c0.3-0.1,0.6-0.1,0.9-0.2c0.3,0,0.6-0.1,0.9-0.1
		c0.3-0.1,0.5-0.2,0.8-0.3h0.1c0.5,0,1.1-0.1,1.6-0.3c0.5-0.2,1.1-0.2,1.6-0.2c0.4-0.2,0.8-0.4,1.2-0.5c0.4-0.1,0.8-0.1,1.3-0.1
		c0.1,0,0.2,0,0.4-0.1c0.2-0.1,0.3-0.1,0.6-0.1c0,0,0.1,0,0.1,0c0,0,0.1,0,0.1,0c0.2,0,0.3-0.1,0.4-0.2c0.1-0.1,0.3-0.2,0.6-0.2
		c0.2,0,0.3,0,0.4,0c0.1,0,0.3,0,0.4,0c0.2,0,0.3-0.1,0.3-0.2c0-0.1,0.1-0.2,0.3-0.1c0.1,0.1,0.2,0.1,0.3,0.1s0.3,0,0.4,0
		c0.2,0,0.2,0,0.3,0.1c0.4-0.2,0.7-0.4,1.2-0.4s0.8-0.1,1.2-0.1c0.2,0,0.3,0,0.5,0s0.3,0,0.5,0c0.2-0.1,0.4-0.2,0.7-0.2
		c0.2,0,0.4,0.1,0.7,0.2c0.3,0.1,0.7,0.3,1.1,0.5c0.4,0.2,0.7,0.4,1,0.6s0.5,0.4,0.6,0.5c0,0,0.1,0.1,0.1,0.3c0,0.2,0,0.3,0.1,0.4
		c0.1,0.3,0.2,0.5,0.3,0.7C199.8,14,199.9,14.3,199.9,14.6z M196.2,14.9c0,0,0-0.1,0-0.1c0-0.1,0-0.1,0-0.1
		c-0.1-0.1-0.3-0.2-0.4-0.3s-0.4-0.1-0.6-0.2c-0.2,0-0.4-0.1-0.6-0.1c-0.2,0-0.4-0.1-0.5-0.1c-0.5,0.2-1,0.2-1.5,0.2
		c-0.5,0-1-0.1-1.4-0.2c-0.2,0.2-0.5,0.4-0.8,0.5c-0.3,0.1-0.6,0.2-1,0.2c-0.3,0.1-0.7,0.1-1,0.1s-0.6,0-0.9,0
		c-0.1,0-0.2,0.1-0.5,0.2c-0.2,0.1-0.4,0.2-0.6,0.2c-0.1,0-0.3-0.1-0.4-0.2c-0.2,0.2-0.5,0.3-0.8,0.4c-0.4,0.1-0.7,0.2-1.1,0.3
		c-0.4,0.1-0.8,0.2-1.1,0.2c-0.4,0.1-0.7,0.2-1,0.3c-0.3,0.6-0.4,1.2-0.4,1.9s0,1.3,0,2c0,0.4,0,0.7-0.1,1.1c0,0.4-0.1,0.7-0.1,1.1
		c0,0.2,0,0.4,0,0.5s0.1,0.4,0.2,0.5c-0.2,0.1-0.3,0.3-0.3,0.5c-0.1,0.2-0.1,0.4-0.1,0.6c0,0.2,0,0.5,0.1,0.7c0,0.2,0.1,0.4,0.1,0.6
		c0.7-0.1,1.4-0.2,1.9-0.4c0.6-0.2,1.1-0.4,1.7-0.7s1-0.6,1.5-1c0.5-0.4,1-0.8,1.5-1.2c0.2,0,0.4-0.1,0.5-0.2
		c0.1-0.1,0.3-0.1,0.5-0.1c0.1-0.3,0.3-0.5,0.5-0.6c0.2-0.1,0.4-0.3,0.6-0.5c0.3-0.1,0.5-0.2,0.7-0.3c0.2-0.1,0.4-0.2,0.5-0.4
		s0.4-0.2,0.6-0.3c0.2-0.1,0.4-0.2,0.7-0.2c0.4-0.4,0.8-0.9,1.2-1.3c0.4-0.4,0.9-0.8,1.4-1.1c0.1-0.2,0.2-0.4,0.3-0.6
		c0.1-0.2,0.2-0.3,0.3-0.5c0.1-0.2,0.2-0.3,0.2-0.5C196.1,15.4,196.2,15.2,196.2,14.9z"/>
</g>
</svg>
